<mxfile host="Electron" modified="2024-05-07T16:58:03.375Z" agent="Mozilla/5.0 (Windows NT 10.0; Win64; x64) AppleWebKit/537.36 (KHTML, like Gecko) draw.io/24.2.5 Chrome/120.0.6099.109 Electron/28.1.0 Safari/537.36" etag="4oqqn-v3HyvbWXs0Fu2s" version="24.2.5" type="device" pages="10">
  <diagram id="fkWHMnWHor7PSpOmIvHP" name="Withdraw">
    <mxGraphModel dx="1434" dy="836" grid="1" gridSize="10" guides="1" tooltips="1" connect="1" arrows="1" fold="1" page="1" pageScale="1" pageWidth="827" pageHeight="1169" math="0" shadow="0">
      <root>
        <mxCell id="0" />
        <mxCell id="1" parent="0" />
        <mxCell id="oUHx2e5sgxUP2EeicmZG-3" value="" style="edgeStyle=orthogonalEdgeStyle;rounded=0;orthogonalLoop=1;jettySize=auto;html=1;flowAnimation=1;" edge="1" parent="1" source="oUHx2e5sgxUP2EeicmZG-1" target="oUHx2e5sgxUP2EeicmZG-2">
          <mxGeometry relative="1" as="geometry">
            <Array as="points">
              <mxPoint x="40" y="90" />
              <mxPoint x="40" y="90" />
            </Array>
          </mxGeometry>
        </mxCell>
        <mxCell id="Tgl_gtcqZ-cgEY039tLp-2" style="edgeStyle=orthogonalEdgeStyle;rounded=0;orthogonalLoop=1;jettySize=auto;html=1;entryX=0.5;entryY=1;entryDx=0;entryDy=0;flowAnimation=1;" edge="1" parent="1" source="oUHx2e5sgxUP2EeicmZG-1" target="Tgl_gtcqZ-cgEY039tLp-1">
          <mxGeometry relative="1" as="geometry" />
        </mxCell>
        <UserObject label="Withdraw" link="data:page/id,fkWHMnWHor7PSpOmIvHP" id="oUHx2e5sgxUP2EeicmZG-1">
          <mxCell style="shape=offPageConnector;whiteSpace=wrap;html=1;" vertex="1" parent="1">
            <mxGeometry width="80" height="80" as="geometry" />
          </mxCell>
        </UserObject>
        <mxCell id="NSRPaASZrs5Pf6W46IhQ-9" style="edgeStyle=orthogonalEdgeStyle;rounded=0;orthogonalLoop=1;jettySize=auto;html=1;flowAnimation=1;" edge="1" parent="1" source="oUHx2e5sgxUP2EeicmZG-2" target="NSRPaASZrs5Pf6W46IhQ-6">
          <mxGeometry relative="1" as="geometry" />
        </mxCell>
        <mxCell id="oUHx2e5sgxUP2EeicmZG-2" value="select amount" style="whiteSpace=wrap;html=1;" vertex="1" parent="1">
          <mxGeometry y="150" width="120" height="60" as="geometry" />
        </mxCell>
        <mxCell id="NSRPaASZrs5Pf6W46IhQ-10" value="yes" style="edgeStyle=orthogonalEdgeStyle;rounded=0;orthogonalLoop=1;jettySize=auto;html=1;flowAnimation=1;" edge="1" parent="1" source="NSRPaASZrs5Pf6W46IhQ-6" target="NSRPaASZrs5Pf6W46IhQ-8">
          <mxGeometry relative="1" as="geometry" />
        </mxCell>
        <mxCell id="NSRPaASZrs5Pf6W46IhQ-14" value="no" style="edgeStyle=orthogonalEdgeStyle;rounded=0;orthogonalLoop=1;jettySize=auto;html=1;flowAnimation=1;" edge="1" parent="1" source="NSRPaASZrs5Pf6W46IhQ-6" target="NSRPaASZrs5Pf6W46IhQ-13">
          <mxGeometry relative="1" as="geometry">
            <Array as="points">
              <mxPoint x="10" y="330" />
            </Array>
          </mxGeometry>
        </mxCell>
        <mxCell id="NSRPaASZrs5Pf6W46IhQ-6" value="was quantity requested more than availiable?" style="rhombus;whiteSpace=wrap;html=1;" vertex="1" parent="1">
          <mxGeometry x="20" y="270" width="80" height="80" as="geometry" />
        </mxCell>
        <mxCell id="NSRPaASZrs5Pf6W46IhQ-8" value="&quot;sorry, invalid amount (show max allowed). input a different amount" style="whiteSpace=wrap;html=1;" vertex="1" parent="1">
          <mxGeometry x="30" y="400" width="120" height="60" as="geometry" />
        </mxCell>
        <mxCell id="NSRPaASZrs5Pf6W46IhQ-11" style="edgeStyle=orthogonalEdgeStyle;rounded=0;orthogonalLoop=1;jettySize=auto;html=1;entryX=0.917;entryY=0.833;entryDx=0;entryDy=0;entryPerimeter=0;flowAnimation=1;" edge="1" parent="1" source="NSRPaASZrs5Pf6W46IhQ-8" target="oUHx2e5sgxUP2EeicmZG-2">
          <mxGeometry relative="1" as="geometry">
            <Array as="points">
              <mxPoint x="110" y="350" />
              <mxPoint x="110" y="350" />
            </Array>
          </mxGeometry>
        </mxCell>
        <mxCell id="X0H9-k8bbZzM3Mhl5ftu-7" value="" style="edgeStyle=orthogonalEdgeStyle;rounded=0;orthogonalLoop=1;jettySize=auto;html=1;flowAnimation=1;" edge="1" parent="1" source="NSRPaASZrs5Pf6W46IhQ-13" target="X0H9-k8bbZzM3Mhl5ftu-5">
          <mxGeometry relative="1" as="geometry" />
        </mxCell>
        <mxCell id="NSRPaASZrs5Pf6W46IhQ-13" value="show selected amount" style="whiteSpace=wrap;html=1;" vertex="1" parent="1">
          <mxGeometry y="525" width="120" height="60" as="geometry" />
        </mxCell>
        <mxCell id="X0H9-k8bbZzM3Mhl5ftu-20" style="edgeStyle=orthogonalEdgeStyle;rounded=0;orthogonalLoop=1;jettySize=auto;html=1;entryX=0;entryY=0.5;entryDx=0;entryDy=0;flowAnimation=1;" edge="1" parent="1" source="X0H9-k8bbZzM3Mhl5ftu-5" target="X0H9-k8bbZzM3Mhl5ftu-13">
          <mxGeometry relative="1" as="geometry" />
        </mxCell>
        <mxCell id="X0H9-k8bbZzM3Mhl5ftu-5" value="this the amount you want to withdraw?" style="rhombus;whiteSpace=wrap;html=1;" vertex="1" parent="1">
          <mxGeometry x="160" y="515" width="80" height="80" as="geometry" />
        </mxCell>
        <mxCell id="X0H9-k8bbZzM3Mhl5ftu-6" value="no" style="edgeStyle=orthogonalEdgeStyle;rounded=0;orthogonalLoop=1;jettySize=auto;html=1;entryX=1;entryY=0.383;entryDx=0;entryDy=0;entryPerimeter=0;flowAnimation=1;" edge="1" parent="1" source="X0H9-k8bbZzM3Mhl5ftu-5" target="oUHx2e5sgxUP2EeicmZG-2">
          <mxGeometry relative="1" as="geometry">
            <Array as="points">
              <mxPoint x="200" y="173" />
            </Array>
          </mxGeometry>
        </mxCell>
        <mxCell id="X0H9-k8bbZzM3Mhl5ftu-13" value="how would you like the money to be withdrawn" style="ellipse" vertex="1" parent="1">
          <mxGeometry x="310" y="270" width="320" height="30" as="geometry" />
        </mxCell>
        <mxCell id="X0H9-k8bbZzM3Mhl5ftu-23" style="edgeStyle=orthogonalEdgeStyle;rounded=0;orthogonalLoop=1;jettySize=auto;html=1;entryX=0.5;entryY=0;entryDx=0;entryDy=0;flowAnimation=1;" edge="1" parent="1" source="X0H9-k8bbZzM3Mhl5ftu-14" target="X0H9-k8bbZzM3Mhl5ftu-21">
          <mxGeometry relative="1" as="geometry">
            <Array as="points">
              <mxPoint x="355" y="420" />
              <mxPoint x="470" y="420" />
            </Array>
          </mxGeometry>
        </mxCell>
        <mxCell id="X0H9-k8bbZzM3Mhl5ftu-14" value="Cash (pick up in bank)" style="rounded=1;" vertex="1" parent="1">
          <mxGeometry x="290" y="350" width="130" height="60" as="geometry" />
        </mxCell>
        <mxCell id="X0H9-k8bbZzM3Mhl5ftu-15" value="" style="edgeStyle=elbowEdgeStyle;elbow=vertical;flowAnimation=1;" edge="1" source="X0H9-k8bbZzM3Mhl5ftu-13" target="X0H9-k8bbZzM3Mhl5ftu-14" parent="1">
          <mxGeometry relative="1" as="geometry" />
        </mxCell>
        <mxCell id="X0H9-k8bbZzM3Mhl5ftu-22" value="" style="edgeStyle=orthogonalEdgeStyle;rounded=0;orthogonalLoop=1;jettySize=auto;html=1;flowAnimation=1;" edge="1" parent="1" source="X0H9-k8bbZzM3Mhl5ftu-16" target="X0H9-k8bbZzM3Mhl5ftu-21">
          <mxGeometry relative="1" as="geometry" />
        </mxCell>
        <mxCell id="X0H9-k8bbZzM3Mhl5ftu-16" value="Check" style="rounded=1;" vertex="1" parent="1">
          <mxGeometry x="430" y="350" width="80" height="30" as="geometry" />
        </mxCell>
        <mxCell id="X0H9-k8bbZzM3Mhl5ftu-17" value="" style="edgeStyle=elbowEdgeStyle;elbow=vertical;flowAnimation=1;" edge="1" source="X0H9-k8bbZzM3Mhl5ftu-13" target="X0H9-k8bbZzM3Mhl5ftu-16" parent="1">
          <mxGeometry relative="1" as="geometry" />
        </mxCell>
        <mxCell id="X0H9-k8bbZzM3Mhl5ftu-24" style="edgeStyle=orthogonalEdgeStyle;rounded=0;orthogonalLoop=1;jettySize=auto;html=1;entryX=0.5;entryY=0;entryDx=0;entryDy=0;flowAnimation=1;" edge="1" parent="1" source="X0H9-k8bbZzM3Mhl5ftu-18" target="X0H9-k8bbZzM3Mhl5ftu-21">
          <mxGeometry relative="1" as="geometry">
            <Array as="points">
              <mxPoint x="590" y="420" />
              <mxPoint x="470" y="420" />
            </Array>
          </mxGeometry>
        </mxCell>
        <mxCell id="X0H9-k8bbZzM3Mhl5ftu-18" value="Debit Card" style="rounded=1;" vertex="1" parent="1">
          <mxGeometry x="550" y="350" width="80" height="30" as="geometry" />
        </mxCell>
        <mxCell id="X0H9-k8bbZzM3Mhl5ftu-19" value="" style="edgeStyle=elbowEdgeStyle;elbow=vertical;flowAnimation=1;" edge="1" source="X0H9-k8bbZzM3Mhl5ftu-13" target="X0H9-k8bbZzM3Mhl5ftu-18" parent="1">
          <mxGeometry relative="1" as="geometry" />
        </mxCell>
        <mxCell id="X0H9-k8bbZzM3Mhl5ftu-25" value="no" style="edgeStyle=orthogonalEdgeStyle;rounded=0;orthogonalLoop=1;jettySize=auto;html=1;entryX=0;entryY=0.5;entryDx=0;entryDy=0;flowAnimation=1;" edge="1" parent="1" source="X0H9-k8bbZzM3Mhl5ftu-21" target="X0H9-k8bbZzM3Mhl5ftu-13">
          <mxGeometry x="-0.6543" relative="1" as="geometry">
            <Array as="points">
              <mxPoint x="410" y="440" />
              <mxPoint x="280" y="440" />
              <mxPoint x="280" y="310" />
              <mxPoint x="310" y="310" />
            </Array>
            <mxPoint as="offset" />
          </mxGeometry>
        </mxCell>
        <mxCell id="gPFKavbPKfSLh9zYQ5c1-4" value="yes" style="edgeStyle=orthogonalEdgeStyle;rounded=0;orthogonalLoop=1;jettySize=auto;html=1;flowAnimation=1;" edge="1" parent="1" source="X0H9-k8bbZzM3Mhl5ftu-21" target="gPFKavbPKfSLh9zYQ5c1-3">
          <mxGeometry relative="1" as="geometry" />
        </mxCell>
        <mxCell id="X0H9-k8bbZzM3Mhl5ftu-21" value="confirm is &quot;option&quot; what you want?" style="rhombus;whiteSpace=wrap;html=1;" vertex="1" parent="1">
          <mxGeometry x="410" y="470" width="120" height="120" as="geometry" />
        </mxCell>
        <mxCell id="X0H9-k8bbZzM3Mhl5ftu-30" style="edgeStyle=orthogonalEdgeStyle;rounded=0;orthogonalLoop=1;jettySize=auto;html=1;flowAnimation=1;" edge="1" parent="1" source="X0H9-k8bbZzM3Mhl5ftu-27" target="X0H9-k8bbZzM3Mhl5ftu-29">
          <mxGeometry relative="1" as="geometry" />
        </mxCell>
        <mxCell id="X0H9-k8bbZzM3Mhl5ftu-27" value="preform option" style="whiteSpace=wrap;html=1;" vertex="1" parent="1">
          <mxGeometry x="590" y="500" width="120" height="60" as="geometry" />
        </mxCell>
        <UserObject label="Withdraw" link="data:page/id,rjkk4G9pVdGJUG_Aq8ia" id="X0H9-k8bbZzM3Mhl5ftu-29">
          <mxCell style="shape=offPageConnector;whiteSpace=wrap;html=1;" vertex="1" parent="1">
            <mxGeometry x="680" y="340" width="80" height="80" as="geometry" />
          </mxCell>
        </UserObject>
        <mxCell id="gPFKavbPKfSLh9zYQ5c1-10" value="no" style="edgeStyle=orthogonalEdgeStyle;rounded=0;orthogonalLoop=1;jettySize=auto;html=1;flowAnimation=1;" edge="1" parent="1" source="gPFKavbPKfSLh9zYQ5c1-1" target="gPFKavbPKfSLh9zYQ5c1-9">
          <mxGeometry relative="1" as="geometry" />
        </mxCell>
        <mxCell id="gPFKavbPKfSLh9zYQ5c1-1" value="is code correct" style="rhombus;whiteSpace=wrap;html=1;" vertex="1" parent="1">
          <mxGeometry x="590" y="610" width="80" height="80" as="geometry" />
        </mxCell>
        <mxCell id="gPFKavbPKfSLh9zYQ5c1-6" value="" style="edgeStyle=orthogonalEdgeStyle;rounded=0;orthogonalLoop=1;jettySize=auto;html=1;flowAnimation=1;" edge="1" parent="1" source="gPFKavbPKfSLh9zYQ5c1-3" target="gPFKavbPKfSLh9zYQ5c1-1">
          <mxGeometry relative="1" as="geometry" />
        </mxCell>
        <mxCell id="gPFKavbPKfSLh9zYQ5c1-3" value="input username and passcode" style="whiteSpace=wrap;html=1;" vertex="1" parent="1">
          <mxGeometry x="410" y="620" width="120" height="60" as="geometry" />
        </mxCell>
        <mxCell id="gPFKavbPKfSLh9zYQ5c1-7" value="yes" style="edgeStyle=orthogonalEdgeStyle;rounded=0;orthogonalLoop=1;jettySize=auto;html=1;entryX=0.317;entryY=0.983;entryDx=0;entryDy=0;entryPerimeter=0;flowAnimation=1;" edge="1" parent="1" source="gPFKavbPKfSLh9zYQ5c1-1" target="X0H9-k8bbZzM3Mhl5ftu-27">
          <mxGeometry relative="1" as="geometry" />
        </mxCell>
        <mxCell id="gPFKavbPKfSLh9zYQ5c1-11" style="edgeStyle=orthogonalEdgeStyle;rounded=0;orthogonalLoop=1;jettySize=auto;html=1;flowAnimation=1;" edge="1" parent="1" source="gPFKavbPKfSLh9zYQ5c1-9" target="gPFKavbPKfSLh9zYQ5c1-3">
          <mxGeometry relative="1" as="geometry" />
        </mxCell>
        <mxCell id="gPFKavbPKfSLh9zYQ5c1-9" value="error" style="whiteSpace=wrap;html=1;" vertex="1" parent="1">
          <mxGeometry x="570" y="720" width="120" height="60" as="geometry" />
        </mxCell>
        <UserObject label="Cancel" link="data:page/id,rjkk4G9pVdGJUG_Aq8ia" id="Tgl_gtcqZ-cgEY039tLp-1">
          <mxCell style="shape=offPageConnector;whiteSpace=wrap;html=1;" vertex="1" parent="1">
            <mxGeometry x="110" width="80" height="80" as="geometry" />
          </mxCell>
        </UserObject>
      </root>
    </mxGraphModel>
  </diagram>
  <diagram id="pU4UomeMbyQIlmwQuINI" name="Deposit">
    <mxGraphModel dx="1434" dy="836" grid="1" gridSize="10" guides="1" tooltips="1" connect="1" arrows="1" fold="1" page="1" pageScale="1" pageWidth="850" pageHeight="1100" math="0" shadow="0">
      <root>
        <mxCell id="0" />
        <mxCell id="1" parent="0" />
        <mxCell id="64jNFOERI_Tb6HPFOE4B-1" value="yes" style="edgeStyle=orthogonalEdgeStyle;rounded=0;orthogonalLoop=1;jettySize=auto;html=1;flowAnimation=1;" edge="1" parent="1" source="64jNFOERI_Tb6HPFOE4B-2" target="64jNFOERI_Tb6HPFOE4B-9">
          <mxGeometry relative="1" as="geometry">
            <Array as="points">
              <mxPoint x="240" y="440" />
              <mxPoint x="240" y="410" />
            </Array>
          </mxGeometry>
        </mxCell>
        <mxCell id="9-vKMg_pQapwa704O37l-1" value="no" style="edgeStyle=orthogonalEdgeStyle;rounded=0;orthogonalLoop=1;jettySize=auto;html=1;entryX=0;entryY=1;entryDx=0;entryDy=0;flowAnimation=1;" edge="1" parent="1" source="64jNFOERI_Tb6HPFOE4B-2" target="gFU9TzptzSrd8i_0NJRg-2">
          <mxGeometry relative="1" as="geometry">
            <Array as="points">
              <mxPoint x="20" y="340" />
              <mxPoint x="20" y="340" />
            </Array>
          </mxGeometry>
        </mxCell>
        <mxCell id="64jNFOERI_Tb6HPFOE4B-2" value="do yoy want to transfer this money into &quot;x&quot; acount?" style="rhombus;whiteSpace=wrap;html=1;" vertex="1" parent="1">
          <mxGeometry x="20" y="380" width="120" height="120" as="geometry" />
        </mxCell>
        <mxCell id="64jNFOERI_Tb6HPFOE4B-3" style="edgeStyle=orthogonalEdgeStyle;rounded=0;orthogonalLoop=1;jettySize=auto;html=1;flowAnimation=1;" edge="1" parent="1" source="64jNFOERI_Tb6HPFOE4B-4" target="64jNFOERI_Tb6HPFOE4B-5">
          <mxGeometry relative="1" as="geometry" />
        </mxCell>
        <mxCell id="64jNFOERI_Tb6HPFOE4B-4" value="deposit &quot;x&quot; amount of cash into account" style="whiteSpace=wrap;html=1;" vertex="1" parent="1">
          <mxGeometry x="520" y="260" width="120" height="60" as="geometry" />
        </mxCell>
        <UserObject label="Deposit" link="data:page/id,rjkk4G9pVdGJUG_Aq8ia" id="64jNFOERI_Tb6HPFOE4B-5">
          <mxCell style="shape=offPageConnector;whiteSpace=wrap;html=1;" vertex="1" parent="1">
            <mxGeometry x="610" y="100" width="80" height="80" as="geometry" />
          </mxCell>
        </UserObject>
        <mxCell id="64jNFOERI_Tb6HPFOE4B-6" value="no" style="edgeStyle=orthogonalEdgeStyle;rounded=0;orthogonalLoop=1;jettySize=auto;html=1;flowAnimation=1;" edge="1" parent="1" source="64jNFOERI_Tb6HPFOE4B-7" target="64jNFOERI_Tb6HPFOE4B-12">
          <mxGeometry relative="1" as="geometry" />
        </mxCell>
        <mxCell id="64jNFOERI_Tb6HPFOE4B-7" value="is code correct" style="rhombus;whiteSpace=wrap;html=1;" vertex="1" parent="1">
          <mxGeometry x="520" y="370" width="80" height="80" as="geometry" />
        </mxCell>
        <mxCell id="64jNFOERI_Tb6HPFOE4B-8" value="" style="edgeStyle=orthogonalEdgeStyle;rounded=0;orthogonalLoop=1;jettySize=auto;html=1;flowAnimation=1;" edge="1" parent="1" source="64jNFOERI_Tb6HPFOE4B-9" target="64jNFOERI_Tb6HPFOE4B-7">
          <mxGeometry relative="1" as="geometry" />
        </mxCell>
        <mxCell id="64jNFOERI_Tb6HPFOE4B-9" value="input username and passcode" style="whiteSpace=wrap;html=1;" vertex="1" parent="1">
          <mxGeometry x="340" y="380" width="120" height="60" as="geometry" />
        </mxCell>
        <mxCell id="64jNFOERI_Tb6HPFOE4B-10" value="yes" style="edgeStyle=orthogonalEdgeStyle;rounded=0;orthogonalLoop=1;jettySize=auto;html=1;entryX=0.317;entryY=0.983;entryDx=0;entryDy=0;entryPerimeter=0;flowAnimation=1;" edge="1" parent="1" source="64jNFOERI_Tb6HPFOE4B-7" target="64jNFOERI_Tb6HPFOE4B-4">
          <mxGeometry relative="1" as="geometry" />
        </mxCell>
        <mxCell id="64jNFOERI_Tb6HPFOE4B-11" style="edgeStyle=orthogonalEdgeStyle;rounded=0;orthogonalLoop=1;jettySize=auto;html=1;flowAnimation=1;" edge="1" parent="1" source="64jNFOERI_Tb6HPFOE4B-12" target="64jNFOERI_Tb6HPFOE4B-9">
          <mxGeometry relative="1" as="geometry" />
        </mxCell>
        <mxCell id="64jNFOERI_Tb6HPFOE4B-12" value="error" style="whiteSpace=wrap;html=1;" vertex="1" parent="1">
          <mxGeometry x="500" y="480" width="120" height="60" as="geometry" />
        </mxCell>
        <mxCell id="gFU9TzptzSrd8i_0NJRg-9" value="" style="edgeStyle=orthogonalEdgeStyle;rounded=0;orthogonalLoop=1;jettySize=auto;html=1;flowAnimation=1;" edge="1" parent="1" source="gFU9TzptzSrd8i_0NJRg-1" target="gFU9TzptzSrd8i_0NJRg-2">
          <mxGeometry relative="1" as="geometry" />
        </mxCell>
        <mxCell id="gFU9TzptzSrd8i_0NJRg-15" style="edgeStyle=orthogonalEdgeStyle;rounded=0;orthogonalLoop=1;jettySize=auto;html=1;entryX=0.5;entryY=1;entryDx=0;entryDy=0;flowAnimation=1;" edge="1" parent="1" source="gFU9TzptzSrd8i_0NJRg-1" target="gFU9TzptzSrd8i_0NJRg-14">
          <mxGeometry relative="1" as="geometry">
            <Array as="points">
              <mxPoint x="80" y="110" />
              <mxPoint x="190" y="110" />
            </Array>
          </mxGeometry>
        </mxCell>
        <UserObject label="Deposit" id="gFU9TzptzSrd8i_0NJRg-1">
          <mxCell style="shape=offPageConnector;whiteSpace=wrap;html=1;" vertex="1" parent="1">
            <mxGeometry x="40" y="10" width="80" height="80" as="geometry" />
          </mxCell>
        </UserObject>
        <mxCell id="gFU9TzptzSrd8i_0NJRg-5" value="" style="edgeStyle=orthogonalEdgeStyle;rounded=0;orthogonalLoop=1;jettySize=auto;html=1;flowAnimation=1;" edge="1" parent="1" source="gFU9TzptzSrd8i_0NJRg-2" target="gFU9TzptzSrd8i_0NJRg-4">
          <mxGeometry relative="1" as="geometry" />
        </mxCell>
        <mxCell id="gFU9TzptzSrd8i_0NJRg-2" value="ask for source of money" style="whiteSpace=wrap;html=1;" vertex="1" parent="1">
          <mxGeometry x="20" y="130" width="120" height="60" as="geometry" />
        </mxCell>
        <mxCell id="gFU9TzptzSrd8i_0NJRg-7" value="no" style="edgeStyle=orthogonalEdgeStyle;rounded=0;orthogonalLoop=1;jettySize=auto;html=1;flowAnimation=1;" edge="1" parent="1" source="gFU9TzptzSrd8i_0NJRg-4" target="gFU9TzptzSrd8i_0NJRg-6">
          <mxGeometry x="-0.7273" relative="1" as="geometry">
            <mxPoint as="offset" />
          </mxGeometry>
        </mxCell>
        <mxCell id="gFU9TzptzSrd8i_0NJRg-11" value="yes" style="edgeStyle=orthogonalEdgeStyle;rounded=0;orthogonalLoop=1;jettySize=auto;html=1;flowAnimation=1;" edge="1" parent="1" source="gFU9TzptzSrd8i_0NJRg-4" target="64jNFOERI_Tb6HPFOE4B-2">
          <mxGeometry relative="1" as="geometry" />
        </mxCell>
        <mxCell id="gFU9TzptzSrd8i_0NJRg-4" value="is money availiable?" style="rhombus;whiteSpace=wrap;html=1;" vertex="1" parent="1">
          <mxGeometry x="40" y="260" width="80" height="80" as="geometry" />
        </mxCell>
        <mxCell id="gFU9TzptzSrd8i_0NJRg-10" value="" style="edgeStyle=orthogonalEdgeStyle;rounded=0;orthogonalLoop=1;jettySize=auto;html=1;flowAnimation=1;" edge="1" parent="1" source="gFU9TzptzSrd8i_0NJRg-6" target="gFU9TzptzSrd8i_0NJRg-2">
          <mxGeometry relative="1" as="geometry" />
        </mxCell>
        <mxCell id="gFU9TzptzSrd8i_0NJRg-6" value="error" style="whiteSpace=wrap;html=1;" vertex="1" parent="1">
          <mxGeometry x="170" y="130" width="120" height="60" as="geometry" />
        </mxCell>
        <UserObject label="Cancel" link="data:page/id,rjkk4G9pVdGJUG_Aq8ia" id="gFU9TzptzSrd8i_0NJRg-14">
          <mxCell style="shape=offPageConnector;whiteSpace=wrap;html=1;" vertex="1" parent="1">
            <mxGeometry x="150" y="10" width="80" height="80" as="geometry" />
          </mxCell>
        </UserObject>
      </root>
    </mxGraphModel>
  </diagram>
  <diagram id="9yoKAOMPRaT6OcF7ZaXy" name="Cash Check">
    <mxGraphModel dx="1434" dy="836" grid="1" gridSize="10" guides="1" tooltips="1" connect="1" arrows="1" fold="1" page="1" pageScale="1" pageWidth="827" pageHeight="1169" math="0" shadow="0">
      <root>
        <mxCell id="0" />
        <mxCell id="1" parent="0" />
        <mxCell id="zj-5sViOzcZSsQPnHY5n-2" style="edgeStyle=orthogonalEdgeStyle;rounded=0;orthogonalLoop=1;jettySize=auto;html=1;flowAnimation=1;" edge="1" parent="1" source="zj-5sViOzcZSsQPnHY5n-3" target="zj-5sViOzcZSsQPnHY5n-6">
          <mxGeometry relative="1" as="geometry" />
        </mxCell>
        <mxCell id="zj-5sViOzcZSsQPnHY5n-3" value="Get check information (camera? manual input? both?)" style="whiteSpace=wrap;html=1;" vertex="1" parent="1">
          <mxGeometry y="150" width="120" height="60" as="geometry" />
        </mxCell>
        <mxCell id="kxsEL2MjhYU3BuAal3wL-6" value="no" style="edgeStyle=orthogonalEdgeStyle;rounded=0;orthogonalLoop=1;jettySize=auto;html=1;flowAnimation=1;" edge="1" parent="1" source="zj-5sViOzcZSsQPnHY5n-6" target="kxsEL2MjhYU3BuAal3wL-5">
          <mxGeometry relative="1" as="geometry" />
        </mxCell>
        <mxCell id="kxsEL2MjhYU3BuAal3wL-8" value="yes" style="edgeStyle=orthogonalEdgeStyle;rounded=0;orthogonalLoop=1;jettySize=auto;html=1;flowAnimation=1;" edge="1" parent="1" source="zj-5sViOzcZSsQPnHY5n-6" target="eKWl0sT9_K_i9BXR8_Xg-2">
          <mxGeometry relative="1" as="geometry" />
        </mxCell>
        <mxCell id="zj-5sViOzcZSsQPnHY5n-6" value="does the check pass the check" style="rhombus;whiteSpace=wrap;html=1;" vertex="1" parent="1">
          <mxGeometry x="20" y="270" width="80" height="80" as="geometry" />
        </mxCell>
        <mxCell id="eKWl0sT9_K_i9BXR8_Xg-1" value="yes" style="edgeStyle=orthogonalEdgeStyle;rounded=0;orthogonalLoop=1;jettySize=auto;html=1;flowAnimation=1;" edge="1" parent="1" source="eKWl0sT9_K_i9BXR8_Xg-2" target="eKWl0sT9_K_i9BXR8_Xg-9">
          <mxGeometry relative="1" as="geometry" />
        </mxCell>
        <mxCell id="eKWl0sT9_K_i9BXR8_Xg-2" value="confirm: transfer check of &quot;x&quot; value to &quot;y&quot; bank acount" style="rhombus;whiteSpace=wrap;html=1;" vertex="1" parent="1">
          <mxGeometry x="20" y="410" width="120" height="120" as="geometry" />
        </mxCell>
        <mxCell id="eKWl0sT9_K_i9BXR8_Xg-3" style="edgeStyle=orthogonalEdgeStyle;rounded=0;orthogonalLoop=1;jettySize=auto;html=1;flowAnimation=1;" edge="1" parent="1" source="eKWl0sT9_K_i9BXR8_Xg-4" target="eKWl0sT9_K_i9BXR8_Xg-5">
          <mxGeometry relative="1" as="geometry" />
        </mxCell>
        <mxCell id="eKWl0sT9_K_i9BXR8_Xg-4" value="preform option" style="whiteSpace=wrap;html=1;" vertex="1" parent="1">
          <mxGeometry x="590" y="500" width="120" height="60" as="geometry" />
        </mxCell>
        <UserObject label="Cash Check" link="data:page/id,rjkk4G9pVdGJUG_Aq8ia" id="eKWl0sT9_K_i9BXR8_Xg-5">
          <mxCell style="shape=offPageConnector;whiteSpace=wrap;html=1;" vertex="1" parent="1">
            <mxGeometry x="680" y="340" width="80" height="80" as="geometry" />
          </mxCell>
        </UserObject>
        <mxCell id="eKWl0sT9_K_i9BXR8_Xg-6" value="no" style="edgeStyle=orthogonalEdgeStyle;rounded=0;orthogonalLoop=1;jettySize=auto;html=1;flowAnimation=1;" edge="1" parent="1" source="eKWl0sT9_K_i9BXR8_Xg-7" target="eKWl0sT9_K_i9BXR8_Xg-12">
          <mxGeometry relative="1" as="geometry" />
        </mxCell>
        <mxCell id="eKWl0sT9_K_i9BXR8_Xg-7" value="is code correct" style="rhombus;whiteSpace=wrap;html=1;" vertex="1" parent="1">
          <mxGeometry x="590" y="610" width="80" height="80" as="geometry" />
        </mxCell>
        <mxCell id="eKWl0sT9_K_i9BXR8_Xg-8" value="" style="edgeStyle=orthogonalEdgeStyle;rounded=0;orthogonalLoop=1;jettySize=auto;html=1;flowAnimation=1;" edge="1" parent="1" source="eKWl0sT9_K_i9BXR8_Xg-9" target="eKWl0sT9_K_i9BXR8_Xg-7">
          <mxGeometry relative="1" as="geometry" />
        </mxCell>
        <mxCell id="eKWl0sT9_K_i9BXR8_Xg-9" value="input username and passcode" style="whiteSpace=wrap;html=1;" vertex="1" parent="1">
          <mxGeometry x="410" y="620" width="120" height="60" as="geometry" />
        </mxCell>
        <mxCell id="eKWl0sT9_K_i9BXR8_Xg-10" value="yes" style="edgeStyle=orthogonalEdgeStyle;rounded=0;orthogonalLoop=1;jettySize=auto;html=1;entryX=0.317;entryY=0.983;entryDx=0;entryDy=0;entryPerimeter=0;flowAnimation=1;" edge="1" parent="1" source="eKWl0sT9_K_i9BXR8_Xg-7" target="eKWl0sT9_K_i9BXR8_Xg-4">
          <mxGeometry relative="1" as="geometry" />
        </mxCell>
        <mxCell id="eKWl0sT9_K_i9BXR8_Xg-11" style="edgeStyle=orthogonalEdgeStyle;rounded=0;orthogonalLoop=1;jettySize=auto;html=1;flowAnimation=1;" edge="1" parent="1" source="eKWl0sT9_K_i9BXR8_Xg-12" target="eKWl0sT9_K_i9BXR8_Xg-9">
          <mxGeometry relative="1" as="geometry" />
        </mxCell>
        <mxCell id="eKWl0sT9_K_i9BXR8_Xg-12" value="error" style="whiteSpace=wrap;html=1;" vertex="1" parent="1">
          <mxGeometry x="570" y="720" width="120" height="60" as="geometry" />
        </mxCell>
        <UserObject label="Cancel" link="data:page/id,rjkk4G9pVdGJUG_Aq8ia" id="Kd_AtlQT_tICD35QRzOF-1">
          <mxCell style="shape=offPageConnector;whiteSpace=wrap;html=1;" vertex="1" parent="1">
            <mxGeometry x="90" width="80" height="80" as="geometry" />
          </mxCell>
        </UserObject>
        <mxCell id="kxsEL2MjhYU3BuAal3wL-2" value="" style="edgeStyle=orthogonalEdgeStyle;rounded=0;orthogonalLoop=1;jettySize=auto;html=1;flowAnimation=1;" edge="1" parent="1" source="kxsEL2MjhYU3BuAal3wL-1" target="zj-5sViOzcZSsQPnHY5n-3">
          <mxGeometry relative="1" as="geometry" />
        </mxCell>
        <UserObject label="Cash Check" id="kxsEL2MjhYU3BuAal3wL-1">
          <mxCell style="shape=offPageConnector;whiteSpace=wrap;html=1;" vertex="1" parent="1">
            <mxGeometry width="80" height="80" as="geometry" />
          </mxCell>
        </UserObject>
        <mxCell id="kxsEL2MjhYU3BuAal3wL-7" value="" style="edgeStyle=orthogonalEdgeStyle;rounded=0;orthogonalLoop=1;jettySize=auto;html=1;flowAnimation=1;" edge="1" parent="1" source="kxsEL2MjhYU3BuAal3wL-5" target="Kd_AtlQT_tICD35QRzOF-1">
          <mxGeometry relative="1" as="geometry" />
        </mxCell>
        <mxCell id="kxsEL2MjhYU3BuAal3wL-5" value="check not accepted (reason) try again?" style="rhombus;whiteSpace=wrap;html=1;" vertex="1" parent="1">
          <mxGeometry x="150" y="270" width="80" height="80" as="geometry" />
        </mxCell>
        <mxCell id="kxsEL2MjhYU3BuAal3wL-9" value="no" style="edgeStyle=orthogonalEdgeStyle;rounded=0;orthogonalLoop=1;jettySize=auto;html=1;entryX=0.075;entryY=1.017;entryDx=0;entryDy=0;entryPerimeter=0;flowAnimation=1;" edge="1" parent="1" source="eKWl0sT9_K_i9BXR8_Xg-2" target="zj-5sViOzcZSsQPnHY5n-3">
          <mxGeometry relative="1" as="geometry">
            <Array as="points">
              <mxPoint x="50" y="390" />
              <mxPoint x="9" y="390" />
            </Array>
          </mxGeometry>
        </mxCell>
      </root>
    </mxGraphModel>
  </diagram>
  <diagram id="sB4keo91o8fRopXlaHOE" name="Pay Bill">
    <mxGraphModel dx="1434" dy="836" grid="1" gridSize="10" guides="1" tooltips="1" connect="1" arrows="1" fold="1" page="1" pageScale="1" pageWidth="827" pageHeight="1169" math="0" shadow="0">
      <root>
        <mxCell id="0" />
        <mxCell id="1" parent="0" />
        <mxCell id="qru3joSKuZRpQULYFEPo-1" value="yes" style="edgeStyle=orthogonalEdgeStyle;rounded=0;orthogonalLoop=1;jettySize=auto;html=1;flowAnimation=1;" edge="1" parent="1" source="qru3joSKuZRpQULYFEPo-2" target="qru3joSKuZRpQULYFEPo-9">
          <mxGeometry relative="1" as="geometry" />
        </mxCell>
        <mxCell id="aTvrDMLUvQrQFsvwzscx-18" style="edgeStyle=orthogonalEdgeStyle;rounded=0;orthogonalLoop=1;jettySize=auto;html=1;entryX=0.75;entryY=0;entryDx=0;entryDy=0;flowAnimation=1;" edge="1" parent="1" source="qru3joSKuZRpQULYFEPo-2" target="ng6nLmOsvuC2LEewdqQx-1">
          <mxGeometry relative="1" as="geometry">
            <Array as="points">
              <mxPoint x="470" y="10" />
              <mxPoint x="210" y="10" />
            </Array>
          </mxGeometry>
        </mxCell>
        <mxCell id="aTvrDMLUvQrQFsvwzscx-19" value="no" style="edgeStyle=orthogonalEdgeStyle;rounded=0;orthogonalLoop=1;jettySize=auto;html=1;entryX=0.425;entryY=-0.012;entryDx=0;entryDy=0;entryPerimeter=0;flowAnimation=1;" edge="1" parent="1" source="qru3joSKuZRpQULYFEPo-2" target="aTvrDMLUvQrQFsvwzscx-1">
          <mxGeometry relative="1" as="geometry">
            <mxPoint x="300" y="-10" as="targetPoint" />
            <Array as="points">
              <mxPoint x="471" y="10" />
              <mxPoint x="294" y="10" />
            </Array>
          </mxGeometry>
        </mxCell>
        <mxCell id="qru3joSKuZRpQULYFEPo-2" value="confirm is bill correct?" style="rhombus;whiteSpace=wrap;html=1;" vertex="1" parent="1">
          <mxGeometry x="410" y="470" width="120" height="120" as="geometry" />
        </mxCell>
        <mxCell id="qru3joSKuZRpQULYFEPo-3" style="edgeStyle=orthogonalEdgeStyle;rounded=0;orthogonalLoop=1;jettySize=auto;html=1;flowAnimation=1;" edge="1" parent="1" source="qru3joSKuZRpQULYFEPo-4" target="qru3joSKuZRpQULYFEPo-5">
          <mxGeometry relative="1" as="geometry" />
        </mxCell>
        <mxCell id="qru3joSKuZRpQULYFEPo-4" value="preform option" style="whiteSpace=wrap;html=1;" vertex="1" parent="1">
          <mxGeometry x="590" y="500" width="120" height="60" as="geometry" />
        </mxCell>
        <UserObject label="Pay Bill" link="data:page/id,rjkk4G9pVdGJUG_Aq8ia" id="qru3joSKuZRpQULYFEPo-5">
          <mxCell style="shape=offPageConnector;whiteSpace=wrap;html=1;" vertex="1" parent="1">
            <mxGeometry x="680" y="340" width="80" height="80" as="geometry" />
          </mxCell>
        </UserObject>
        <mxCell id="qru3joSKuZRpQULYFEPo-6" value="no" style="edgeStyle=orthogonalEdgeStyle;rounded=0;orthogonalLoop=1;jettySize=auto;html=1;flowAnimation=1;" edge="1" parent="1" source="qru3joSKuZRpQULYFEPo-7" target="qru3joSKuZRpQULYFEPo-12">
          <mxGeometry relative="1" as="geometry" />
        </mxCell>
        <mxCell id="qru3joSKuZRpQULYFEPo-7" value="is code correct" style="rhombus;whiteSpace=wrap;html=1;" vertex="1" parent="1">
          <mxGeometry x="590" y="610" width="80" height="80" as="geometry" />
        </mxCell>
        <mxCell id="qru3joSKuZRpQULYFEPo-8" value="" style="edgeStyle=orthogonalEdgeStyle;rounded=0;orthogonalLoop=1;jettySize=auto;html=1;flowAnimation=1;" edge="1" parent="1" source="qru3joSKuZRpQULYFEPo-9" target="qru3joSKuZRpQULYFEPo-7">
          <mxGeometry relative="1" as="geometry" />
        </mxCell>
        <mxCell id="qru3joSKuZRpQULYFEPo-9" value="input username and passcode" style="whiteSpace=wrap;html=1;" vertex="1" parent="1">
          <mxGeometry x="410" y="620" width="120" height="60" as="geometry" />
        </mxCell>
        <mxCell id="qru3joSKuZRpQULYFEPo-10" value="yes" style="edgeStyle=orthogonalEdgeStyle;rounded=0;orthogonalLoop=1;jettySize=auto;html=1;entryX=0.317;entryY=0.983;entryDx=0;entryDy=0;entryPerimeter=0;flowAnimation=1;" edge="1" parent="1" source="qru3joSKuZRpQULYFEPo-7" target="qru3joSKuZRpQULYFEPo-4">
          <mxGeometry relative="1" as="geometry" />
        </mxCell>
        <mxCell id="qru3joSKuZRpQULYFEPo-11" style="edgeStyle=orthogonalEdgeStyle;rounded=0;orthogonalLoop=1;jettySize=auto;html=1;flowAnimation=1;" edge="1" parent="1" source="qru3joSKuZRpQULYFEPo-12" target="qru3joSKuZRpQULYFEPo-9">
          <mxGeometry relative="1" as="geometry" />
        </mxCell>
        <mxCell id="qru3joSKuZRpQULYFEPo-12" value="error" style="whiteSpace=wrap;html=1;" vertex="1" parent="1">
          <mxGeometry x="570" y="720" width="120" height="60" as="geometry" />
        </mxCell>
        <UserObject label="Cancel" link="data:page/id,rjkk4G9pVdGJUG_Aq8ia" id="ng6nLmOsvuC2LEewdqQx-1">
          <mxCell style="shape=offPageConnector;whiteSpace=wrap;html=1;" vertex="1" parent="1">
            <mxGeometry x="150" y="40" width="80" height="80" as="geometry" />
          </mxCell>
        </UserObject>
        <mxCell id="aTvrDMLUvQrQFsvwzscx-3" value="" style="edgeStyle=orthogonalEdgeStyle;rounded=0;orthogonalLoop=1;jettySize=auto;html=1;flowAnimation=1;" edge="1" parent="1" source="aTvrDMLUvQrQFsvwzscx-1" target="aTvrDMLUvQrQFsvwzscx-2">
          <mxGeometry relative="1" as="geometry" />
        </mxCell>
        <UserObject label="Pay Bill" id="aTvrDMLUvQrQFsvwzscx-1">
          <mxCell style="shape=offPageConnector;whiteSpace=wrap;html=1;" vertex="1" parent="1">
            <mxGeometry x="260" y="50" width="80" height="80" as="geometry" />
          </mxCell>
        </UserObject>
        <mxCell id="aTvrDMLUvQrQFsvwzscx-5" value="" style="edgeStyle=orthogonalEdgeStyle;rounded=0;orthogonalLoop=1;jettySize=auto;html=1;flowAnimation=1;" edge="1" parent="1" source="aTvrDMLUvQrQFsvwzscx-2" target="aTvrDMLUvQrQFsvwzscx-4">
          <mxGeometry relative="1" as="geometry" />
        </mxCell>
        <mxCell id="aTvrDMLUvQrQFsvwzscx-2" value="name &quot;bill&quot;" style="whiteSpace=wrap;html=1;" vertex="1" parent="1">
          <mxGeometry x="240" y="180" width="120" height="60" as="geometry" />
        </mxCell>
        <mxCell id="aTvrDMLUvQrQFsvwzscx-7" value="" style="edgeStyle=orthogonalEdgeStyle;rounded=0;orthogonalLoop=1;jettySize=auto;html=1;flowAnimation=1;" edge="1" parent="1" source="aTvrDMLUvQrQFsvwzscx-4" target="aTvrDMLUvQrQFsvwzscx-6">
          <mxGeometry relative="1" as="geometry" />
        </mxCell>
        <mxCell id="aTvrDMLUvQrQFsvwzscx-4" value="set up schedule for &quot;bill&quot;" style="whiteSpace=wrap;html=1;" vertex="1" parent="1">
          <mxGeometry x="240" y="320" width="120" height="60" as="geometry" />
        </mxCell>
        <mxCell id="aTvrDMLUvQrQFsvwzscx-9" value="" style="edgeStyle=orthogonalEdgeStyle;rounded=0;orthogonalLoop=1;jettySize=auto;html=1;flowAnimation=1;" edge="1" parent="1" source="aTvrDMLUvQrQFsvwzscx-6" target="aTvrDMLUvQrQFsvwzscx-8">
          <mxGeometry relative="1" as="geometry" />
        </mxCell>
        <mxCell id="aTvrDMLUvQrQFsvwzscx-6" value="set up where to pay" style="whiteSpace=wrap;html=1;" vertex="1" parent="1">
          <mxGeometry x="240" y="460" width="120" height="60" as="geometry" />
        </mxCell>
        <mxCell id="aTvrDMLUvQrQFsvwzscx-12" style="edgeStyle=orthogonalEdgeStyle;rounded=0;orthogonalLoop=1;jettySize=auto;html=1;entryX=0;entryY=0.5;entryDx=0;entryDy=0;flowAnimation=1;" edge="1" parent="1" source="aTvrDMLUvQrQFsvwzscx-8" target="qru3joSKuZRpQULYFEPo-2">
          <mxGeometry relative="1" as="geometry" />
        </mxCell>
        <mxCell id="aTvrDMLUvQrQFsvwzscx-8" value="every month time the schedule says to, pay that bill, sending an e-mail if &quot;account can&#39;t support one more bill" style="whiteSpace=wrap;html=1;" vertex="1" parent="1">
          <mxGeometry x="240" y="580" width="120" height="80" as="geometry" />
        </mxCell>
      </root>
    </mxGraphModel>
  </diagram>
  <diagram id="lulx23mFYoSuZPkU5GKj" name="Transfer">
    <mxGraphModel dx="1434" dy="836" grid="1" gridSize="10" guides="1" tooltips="1" connect="1" arrows="1" fold="1" page="1" pageScale="1" pageWidth="827" pageHeight="1169" math="0" shadow="0">
      <root>
        <mxCell id="0" />
        <mxCell id="1" parent="0" />
        <mxCell id="me4FPARWW4bQbKoidW1c-2" style="edgeStyle=orthogonalEdgeStyle;rounded=0;orthogonalLoop=1;jettySize=auto;html=1;flowAnimation=1;" edge="1" parent="1" source="me4FPARWW4bQbKoidW1c-3">
          <mxGeometry relative="1" as="geometry">
            <mxPoint x="80" y="465" as="targetPoint" />
          </mxGeometry>
        </mxCell>
        <mxCell id="JgD0qddyfjz21u6hdTau-15" style="edgeStyle=orthogonalEdgeStyle;rounded=0;orthogonalLoop=1;jettySize=auto;html=1;entryX=0.25;entryY=0;entryDx=0;entryDy=0;flowAnimation=1;" edge="1" parent="1" source="me4FPARWW4bQbKoidW1c-3" target="Q4UDl1TZTQIM5fxDQeA6-1">
          <mxGeometry relative="1" as="geometry">
            <mxPoint x="170" y="-20" as="targetPoint" />
            <Array as="points">
              <mxPoint x="10" y="375" />
              <mxPoint x="10" y="10" />
              <mxPoint x="170" y="10" />
            </Array>
          </mxGeometry>
        </mxCell>
        <mxCell id="me4FPARWW4bQbKoidW1c-3" value="select amount" style="whiteSpace=wrap;html=1;" vertex="1" parent="1">
          <mxGeometry x="20" y="345" width="120" height="60" as="geometry" />
        </mxCell>
        <mxCell id="me4FPARWW4bQbKoidW1c-4" value="yes" style="edgeStyle=orthogonalEdgeStyle;rounded=0;orthogonalLoop=1;jettySize=auto;html=1;flowAnimation=1;" edge="1" parent="1" target="me4FPARWW4bQbKoidW1c-7">
          <mxGeometry relative="1" as="geometry">
            <mxPoint x="80" y="545" as="sourcePoint" />
          </mxGeometry>
        </mxCell>
        <mxCell id="me4FPARWW4bQbKoidW1c-5" value="no" style="edgeStyle=orthogonalEdgeStyle;rounded=0;orthogonalLoop=1;jettySize=auto;html=1;flowAnimation=1;" edge="1" parent="1" target="JgD0qddyfjz21u6hdTau-8">
          <mxGeometry relative="1" as="geometry">
            <Array as="points">
              <mxPoint x="30" y="525" />
            </Array>
            <mxPoint x="60" y="525" as="sourcePoint" />
            <mxPoint x="30" y="720" as="targetPoint" />
          </mxGeometry>
        </mxCell>
        <mxCell id="me4FPARWW4bQbKoidW1c-7" value="&quot;sorry, invalid amount (show max allowed). input a different amount" style="whiteSpace=wrap;html=1;" vertex="1" parent="1">
          <mxGeometry x="50" y="595" width="120" height="60" as="geometry" />
        </mxCell>
        <mxCell id="me4FPARWW4bQbKoidW1c-8" style="edgeStyle=orthogonalEdgeStyle;rounded=0;orthogonalLoop=1;jettySize=auto;html=1;entryX=0.917;entryY=0.833;entryDx=0;entryDy=0;entryPerimeter=0;flowAnimation=1;" edge="1" parent="1" source="me4FPARWW4bQbKoidW1c-7" target="me4FPARWW4bQbKoidW1c-3">
          <mxGeometry relative="1" as="geometry">
            <Array as="points">
              <mxPoint x="130" y="545" />
              <mxPoint x="130" y="545" />
            </Array>
          </mxGeometry>
        </mxCell>
        <mxCell id="4yeXMbaAe84C4cC49Bul-1" value="yes" style="edgeStyle=orthogonalEdgeStyle;rounded=0;orthogonalLoop=1;jettySize=auto;html=1;flowAnimation=1;" edge="1" parent="1" source="4yeXMbaAe84C4cC49Bul-2" target="4yeXMbaAe84C4cC49Bul-9">
          <mxGeometry relative="1" as="geometry" />
        </mxCell>
        <mxCell id="JgD0qddyfjz21u6hdTau-14" value="no" style="edgeStyle=orthogonalEdgeStyle;rounded=0;orthogonalLoop=1;jettySize=auto;html=1;entryX=1;entryY=0.5;entryDx=0;entryDy=0;flowAnimation=1;" edge="1" parent="1" source="4yeXMbaAe84C4cC49Bul-2" target="JgD0qddyfjz21u6hdTau-3">
          <mxGeometry x="-0.8983" relative="1" as="geometry">
            <Array as="points">
              <mxPoint x="275" y="530" />
              <mxPoint x="275" y="220" />
              <mxPoint x="140" y="220" />
            </Array>
            <mxPoint as="offset" />
          </mxGeometry>
        </mxCell>
        <mxCell id="4yeXMbaAe84C4cC49Bul-2" value="do you want to trasnfer &quot;x&quot; dollars from acount &quot;A&quot; to &quot;B&quot;" style="rhombus;whiteSpace=wrap;html=1;" vertex="1" parent="1">
          <mxGeometry x="410" y="470" width="120" height="120" as="geometry" />
        </mxCell>
        <mxCell id="4yeXMbaAe84C4cC49Bul-3" style="edgeStyle=orthogonalEdgeStyle;rounded=0;orthogonalLoop=1;jettySize=auto;html=1;flowAnimation=1;" edge="1" parent="1" source="4yeXMbaAe84C4cC49Bul-4" target="4yeXMbaAe84C4cC49Bul-5">
          <mxGeometry relative="1" as="geometry" />
        </mxCell>
        <mxCell id="4yeXMbaAe84C4cC49Bul-4" value="preform option" style="whiteSpace=wrap;html=1;" vertex="1" parent="1">
          <mxGeometry x="590" y="500" width="120" height="60" as="geometry" />
        </mxCell>
        <UserObject label="Transfer" link="data:page/id,rjkk4G9pVdGJUG_Aq8ia" id="4yeXMbaAe84C4cC49Bul-5">
          <mxCell style="shape=offPageConnector;whiteSpace=wrap;html=1;" vertex="1" parent="1">
            <mxGeometry x="680" y="340" width="80" height="80" as="geometry" />
          </mxCell>
        </UserObject>
        <mxCell id="4yeXMbaAe84C4cC49Bul-6" value="no" style="edgeStyle=orthogonalEdgeStyle;rounded=0;orthogonalLoop=1;jettySize=auto;html=1;flowAnimation=1;" edge="1" parent="1" source="4yeXMbaAe84C4cC49Bul-7" target="4yeXMbaAe84C4cC49Bul-12">
          <mxGeometry relative="1" as="geometry" />
        </mxCell>
        <mxCell id="4yeXMbaAe84C4cC49Bul-7" value="is code correct" style="rhombus;whiteSpace=wrap;html=1;" vertex="1" parent="1">
          <mxGeometry x="590" y="610" width="80" height="80" as="geometry" />
        </mxCell>
        <mxCell id="4yeXMbaAe84C4cC49Bul-8" value="" style="edgeStyle=orthogonalEdgeStyle;rounded=0;orthogonalLoop=1;jettySize=auto;html=1;flowAnimation=1;" edge="1" parent="1" source="4yeXMbaAe84C4cC49Bul-9" target="4yeXMbaAe84C4cC49Bul-7">
          <mxGeometry relative="1" as="geometry" />
        </mxCell>
        <mxCell id="4yeXMbaAe84C4cC49Bul-9" value="input username and passcode" style="whiteSpace=wrap;html=1;" vertex="1" parent="1">
          <mxGeometry x="410" y="620" width="120" height="60" as="geometry" />
        </mxCell>
        <mxCell id="4yeXMbaAe84C4cC49Bul-10" value="yes" style="edgeStyle=orthogonalEdgeStyle;rounded=0;orthogonalLoop=1;jettySize=auto;html=1;entryX=0.317;entryY=0.983;entryDx=0;entryDy=0;entryPerimeter=0;flowAnimation=1;" edge="1" parent="1" source="4yeXMbaAe84C4cC49Bul-7" target="4yeXMbaAe84C4cC49Bul-4">
          <mxGeometry relative="1" as="geometry" />
        </mxCell>
        <mxCell id="4yeXMbaAe84C4cC49Bul-11" style="edgeStyle=orthogonalEdgeStyle;rounded=0;orthogonalLoop=1;jettySize=auto;html=1;flowAnimation=1;" edge="1" parent="1" source="4yeXMbaAe84C4cC49Bul-12" target="4yeXMbaAe84C4cC49Bul-9">
          <mxGeometry relative="1" as="geometry" />
        </mxCell>
        <mxCell id="4yeXMbaAe84C4cC49Bul-12" value="error" style="whiteSpace=wrap;html=1;" vertex="1" parent="1">
          <mxGeometry x="570" y="720" width="120" height="60" as="geometry" />
        </mxCell>
        <UserObject label="Cancel" link="data:page/id,rjkk4G9pVdGJUG_Aq8ia" id="Q4UDl1TZTQIM5fxDQeA6-1">
          <mxCell style="shape=offPageConnector;whiteSpace=wrap;html=1;" vertex="1" parent="1">
            <mxGeometry x="150" y="40" width="80" height="80" as="geometry" />
          </mxCell>
        </UserObject>
        <mxCell id="JgD0qddyfjz21u6hdTau-4" value="" style="edgeStyle=orthogonalEdgeStyle;rounded=0;orthogonalLoop=1;jettySize=auto;html=1;flowAnimation=1;" edge="1" parent="1" source="JgD0qddyfjz21u6hdTau-1" target="JgD0qddyfjz21u6hdTau-3">
          <mxGeometry relative="1" as="geometry" />
        </mxCell>
        <UserObject label="Transfer" id="JgD0qddyfjz21u6hdTau-1">
          <mxCell style="shape=offPageConnector;whiteSpace=wrap;html=1;" vertex="1" parent="1">
            <mxGeometry x="40" y="30" width="80" height="80" as="geometry" />
          </mxCell>
        </UserObject>
        <mxCell id="JgD0qddyfjz21u6hdTau-6" value="" style="edgeStyle=orthogonalEdgeStyle;rounded=0;orthogonalLoop=1;jettySize=auto;html=1;flowAnimation=1;" edge="1" parent="1" source="JgD0qddyfjz21u6hdTau-3" target="me4FPARWW4bQbKoidW1c-3">
          <mxGeometry relative="1" as="geometry" />
        </mxCell>
        <mxCell id="JgD0qddyfjz21u6hdTau-13" style="edgeStyle=orthogonalEdgeStyle;rounded=0;orthogonalLoop=1;jettySize=auto;html=1;flowAnimation=1;" edge="1" parent="1" source="JgD0qddyfjz21u6hdTau-3" target="Q4UDl1TZTQIM5fxDQeA6-1">
          <mxGeometry relative="1" as="geometry" />
        </mxCell>
        <mxCell id="JgD0qddyfjz21u6hdTau-3" value="Choose Acount A" style="whiteSpace=wrap;html=1;" vertex="1" parent="1">
          <mxGeometry x="20" y="180" width="120" height="60" as="geometry" />
        </mxCell>
        <mxCell id="JgD0qddyfjz21u6hdTau-7" value="was quantity requested more than availiable?" style="rhombus;whiteSpace=wrap;html=1;" vertex="1" parent="1">
          <mxGeometry x="40" y="465" width="80" height="80" as="geometry" />
        </mxCell>
        <mxCell id="JgD0qddyfjz21u6hdTau-10" value="yes" style="edgeStyle=orthogonalEdgeStyle;rounded=0;orthogonalLoop=1;jettySize=auto;html=1;flowAnimation=1;" edge="1" parent="1" source="JgD0qddyfjz21u6hdTau-8" target="JgD0qddyfjz21u6hdTau-9">
          <mxGeometry relative="1" as="geometry">
            <Array as="points">
              <mxPoint x="130" y="750" />
              <mxPoint x="130" y="750" />
            </Array>
          </mxGeometry>
        </mxCell>
        <mxCell id="JgD0qddyfjz21u6hdTau-16" value="no" style="edgeStyle=orthogonalEdgeStyle;rounded=0;orthogonalLoop=1;jettySize=auto;html=1;entryX=1;entryY=0.25;entryDx=0;entryDy=0;flowAnimation=1;" edge="1" parent="1" source="JgD0qddyfjz21u6hdTau-8" target="me4FPARWW4bQbKoidW1c-3">
          <mxGeometry x="-0.8868" relative="1" as="geometry">
            <Array as="points">
              <mxPoint x="60" y="680" />
              <mxPoint x="190" y="680" />
              <mxPoint x="190" y="360" />
            </Array>
            <mxPoint as="offset" />
          </mxGeometry>
        </mxCell>
        <mxCell id="JgD0qddyfjz21u6hdTau-8" value="do you want to transfer &quot;x&quot; amount" style="rhombus;whiteSpace=wrap;html=1;" vertex="1" parent="1">
          <mxGeometry x="20" y="710" width="80" height="80" as="geometry" />
        </mxCell>
        <mxCell id="JgD0qddyfjz21u6hdTau-11" style="edgeStyle=orthogonalEdgeStyle;rounded=0;orthogonalLoop=1;jettySize=auto;html=1;flowAnimation=1;" edge="1" parent="1" source="JgD0qddyfjz21u6hdTau-9" target="4yeXMbaAe84C4cC49Bul-2">
          <mxGeometry relative="1" as="geometry">
            <Array as="points">
              <mxPoint x="350" y="750" />
              <mxPoint x="350" y="550" />
            </Array>
          </mxGeometry>
        </mxCell>
        <mxCell id="JgD0qddyfjz21u6hdTau-9" value="select acount B" style="whiteSpace=wrap;html=1;" vertex="1" parent="1">
          <mxGeometry x="160" y="720" width="120" height="60" as="geometry" />
        </mxCell>
      </root>
    </mxGraphModel>
  </diagram>
  <diagram name="Start/ main page" id="n6Wm4xatbLt7hEbNFKrT">
    <mxGraphModel dx="1434" dy="836" grid="1" gridSize="10" guides="1" tooltips="1" connect="1" arrows="1" fold="1" page="1" pageScale="1" pageWidth="827" pageHeight="1169" math="0" shadow="0">
      <root>
        <mxCell id="0" />
        <mxCell id="1" parent="0" />
        <mxCell id="L5VrFSeWfsnj4LrfXwjd-1" value="" style="edgeStyle=orthogonalEdgeStyle;rounded=0;orthogonalLoop=1;jettySize=auto;html=1;flowAnimation=1;" parent="1" source="4F1QlJ6JB6xt5xaRoZOq-1" target="4F1QlJ6JB6xt5xaRoZOq-2" edge="1">
          <mxGeometry relative="1" as="geometry" />
        </mxCell>
        <mxCell id="4F1QlJ6JB6xt5xaRoZOq-1" value="start" style="ellipse;whiteSpace=wrap;html=1;" parent="1" vertex="1">
          <mxGeometry width="120" height="80" as="geometry" />
        </mxCell>
        <mxCell id="_EL5aT09_CPuBlSTMl6c-9" style="edgeStyle=orthogonalEdgeStyle;rounded=0;orthogonalLoop=1;jettySize=auto;html=1;flowAnimation=1;" parent="1" source="4F1QlJ6JB6xt5xaRoZOq-2" target="4F1QlJ6JB6xt5xaRoZOq-27" edge="1">
          <mxGeometry relative="1" as="geometry" />
        </mxCell>
        <mxCell id="4F1QlJ6JB6xt5xaRoZOq-2" value="log in" style="whiteSpace=wrap;html=1;" parent="1" vertex="1">
          <mxGeometry y="110" width="120" height="60" as="geometry" />
        </mxCell>
        <mxCell id="_EL5aT09_CPuBlSTMl6c-8" style="edgeStyle=orthogonalEdgeStyle;rounded=0;orthogonalLoop=1;jettySize=auto;html=1;flowAnimation=1;" parent="1" source="4F1QlJ6JB6xt5xaRoZOq-27" target="4F1QlJ6JB6xt5xaRoZOq-32" edge="1">
          <mxGeometry relative="1" as="geometry">
            <Array as="points">
              <mxPoint x="260" y="120" />
              <mxPoint x="300" y="120" />
            </Array>
          </mxGeometry>
        </mxCell>
        <mxCell id="4F1QlJ6JB6xt5xaRoZOq-27" value="Go to portal home page" style="whiteSpace=wrap;html=1;" parent="1" vertex="1">
          <mxGeometry x="150" width="120" height="60" as="geometry" />
        </mxCell>
        <mxCell id="dI1kzhSTy0eHbMkUMBGU-4" style="edgeStyle=orthogonalEdgeStyle;rounded=0;orthogonalLoop=1;jettySize=auto;html=1;endArrow=none;endFill=0;" parent="1" source="4F1QlJ6JB6xt5xaRoZOq-29" target="4F1QlJ6JB6xt5xaRoZOq-27" edge="1">
          <mxGeometry relative="1" as="geometry">
            <Array as="points">
              <mxPoint x="480" y="30" />
              <mxPoint x="480" y="30" />
            </Array>
          </mxGeometry>
        </mxCell>
        <mxCell id="4F1QlJ6JB6xt5xaRoZOq-29" value="at top shows general summary of account balence" style="shape=note;whiteSpace=wrap;html=1;backgroundOutline=1;fontColor=#000000;darkOpacity=0.05;fillColor=#FFF9B2;strokeColor=none;fillStyle=solid;direction=west;gradientDirection=north;gradientColor=#FFF2A1;shadow=1;size=20;pointerEvents=1;" parent="1" vertex="1">
          <mxGeometry x="550" y="10" width="70" height="160" as="geometry" />
        </mxCell>
        <mxCell id="_EL5aT09_CPuBlSTMl6c-11" style="edgeStyle=orthogonalEdgeStyle;rounded=0;orthogonalLoop=1;jettySize=auto;html=1;flowAnimation=1;" parent="1" source="4F1QlJ6JB6xt5xaRoZOq-32" target="qakppE8xT5BotyRYTquy-1" edge="1">
          <mxGeometry relative="1" as="geometry">
            <Array as="points">
              <mxPoint x="300" y="340" />
              <mxPoint x="770" y="340" />
            </Array>
          </mxGeometry>
        </mxCell>
        <mxCell id="_EL5aT09_CPuBlSTMl6c-13" style="edgeStyle=orthogonalEdgeStyle;rounded=0;orthogonalLoop=1;jettySize=auto;html=1;flowAnimation=1;" parent="1" source="4F1QlJ6JB6xt5xaRoZOq-32" target="L5VrFSeWfsnj4LrfXwjd-9" edge="1">
          <mxGeometry relative="1" as="geometry">
            <Array as="points">
              <mxPoint x="300" y="340" />
              <mxPoint x="650" y="340" />
            </Array>
          </mxGeometry>
        </mxCell>
        <mxCell id="YmqCzH-s7GZ3QEFtouMG-1" style="edgeStyle=orthogonalEdgeStyle;rounded=0;orthogonalLoop=1;jettySize=auto;html=1;entryX=0.5;entryY=0;entryDx=0;entryDy=0;flowAnimation=1;" parent="1" source="4F1QlJ6JB6xt5xaRoZOq-32" target="_EL5aT09_CPuBlSTMl6c-14" edge="1">
          <mxGeometry relative="1" as="geometry">
            <Array as="points">
              <mxPoint x="300" y="340" />
              <mxPoint x="360" y="340" />
            </Array>
          </mxGeometry>
        </mxCell>
        <mxCell id="YmqCzH-s7GZ3QEFtouMG-3" style="edgeStyle=orthogonalEdgeStyle;rounded=0;orthogonalLoop=1;jettySize=auto;html=1;flowAnimation=1;" parent="1" source="4F1QlJ6JB6xt5xaRoZOq-32" target="YmqCzH-s7GZ3QEFtouMG-2" edge="1">
          <mxGeometry relative="1" as="geometry">
            <Array as="points">
              <mxPoint x="300" y="340" />
              <mxPoint x="240" y="340" />
            </Array>
          </mxGeometry>
        </mxCell>
        <mxCell id="4F1QlJ6JB6xt5xaRoZOq-32" value="select menue option" style="whiteSpace=wrap;html=1;" parent="1" vertex="1">
          <mxGeometry x="240" y="190" width="120" height="60" as="geometry" />
        </mxCell>
        <mxCell id="4F1QlJ6JB6xt5xaRoZOq-34" value="selection area is visible on account home page, (preview of each section even?) changeing info might be seperate (all the things mentioned bellow" style="shape=note;whiteSpace=wrap;html=1;backgroundOutline=1;fontColor=#000000;darkOpacity=0.05;fillColor=#FFF9B2;strokeColor=none;fillStyle=solid;direction=west;gradientDirection=north;gradientColor=#FFF2A1;shadow=1;size=20;pointerEvents=1;" parent="1" vertex="1">
          <mxGeometry x="390" y="40" width="140" height="160" as="geometry" />
        </mxCell>
        <mxCell id="_EL5aT09_CPuBlSTMl6c-6" style="edgeStyle=orthogonalEdgeStyle;rounded=0;orthogonalLoop=1;jettySize=auto;html=1;entryX=0.5;entryY=1;entryDx=0;entryDy=0;flowAnimation=1;" parent="1" source="4F1QlJ6JB6xt5xaRoZOq-69" target="4F1QlJ6JB6xt5xaRoZOq-27" edge="1">
          <mxGeometry relative="1" as="geometry" />
        </mxCell>
        <mxCell id="4F1QlJ6JB6xt5xaRoZOq-69" value="used menue &lt;br&gt;&lt;br&gt;(this box is used as a connector to orginize arrows. Your welcome)" style="whiteSpace=wrap;html=1;" parent="1" vertex="1">
          <mxGeometry y="190" width="140" height="70" as="geometry" />
        </mxCell>
        <mxCell id="_EL5aT09_CPuBlSTMl6c-3" style="edgeStyle=orthogonalEdgeStyle;rounded=0;orthogonalLoop=1;jettySize=auto;html=1;endArrow=none;endFill=0;" parent="1" source="4F1QlJ6JB6xt5xaRoZOq-72" target="L5VrFSeWfsnj4LrfXwjd-9" edge="1">
          <mxGeometry relative="1" as="geometry" />
        </mxCell>
        <mxCell id="4F1QlJ6JB6xt5xaRoZOq-72" value="shows a button to alter, perhaps displays (non-personal such as name) under account title always? Account Icon with username?" style="shape=note;whiteSpace=wrap;html=1;backgroundOutline=1;fontColor=#000000;darkOpacity=0.05;fillColor=#FFF9B2;strokeColor=none;fillStyle=solid;direction=west;gradientDirection=north;gradientColor=#FFF2A1;shadow=1;size=20;pointerEvents=1;" parent="1" vertex="1">
          <mxGeometry x="430" y="350" width="140" height="90" as="geometry" />
        </mxCell>
        <mxCell id="4F1QlJ6JB6xt5xaRoZOq-118" value="yes" style="edgeStyle=orthogonalEdgeStyle;rounded=0;orthogonalLoop=1;jettySize=auto;html=1;entryX=0.142;entryY=0.033;entryDx=0;entryDy=0;entryPerimeter=0;flowAnimation=0;" parent="1" edge="1">
          <mxGeometry relative="1" as="geometry">
            <Array as="points">
              <mxPoint x="1910" y="380" />
              <mxPoint x="1927" y="380" />
            </Array>
            <mxPoint x="1927.04" y="401.98" as="targetPoint" />
          </mxGeometry>
        </mxCell>
        <mxCell id="4F1QlJ6JB6xt5xaRoZOq-123" style="edgeStyle=orthogonalEdgeStyle;rounded=0;orthogonalLoop=1;jettySize=auto;html=1;entryX=-0.017;entryY=0.767;entryDx=0;entryDy=0;entryPerimeter=0;flowAnimation=0;" parent="1" edge="1">
          <mxGeometry relative="1" as="geometry">
            <Array as="points">
              <mxPoint x="1910" y="516" />
            </Array>
            <mxPoint x="1968.98" y="516.02" as="targetPoint" />
          </mxGeometry>
        </mxCell>
        <mxCell id="YmqCzH-s7GZ3QEFtouMG-5" style="edgeStyle=orthogonalEdgeStyle;rounded=0;orthogonalLoop=1;jettySize=auto;html=1;entryX=0.5;entryY=1;entryDx=0;entryDy=0;flowAnimation=1;" parent="1" source="L5VrFSeWfsnj4LrfXwjd-9" target="4F1QlJ6JB6xt5xaRoZOq-69" edge="1">
          <mxGeometry relative="1" as="geometry">
            <Array as="points">
              <mxPoint x="650" y="560" />
              <mxPoint x="70" y="560" />
            </Array>
          </mxGeometry>
        </mxCell>
        <UserObject label="Change Credentials" link="data:page/id,wfEkAiwTujQPwcicQLLj" id="L5VrFSeWfsnj4LrfXwjd-9">
          <mxCell style="shape=offPageConnector;whiteSpace=wrap;html=1;" parent="1" vertex="1">
            <mxGeometry x="610" y="400" width="80" height="80" as="geometry" />
          </mxCell>
        </UserObject>
        <mxCell id="YmqCzH-s7GZ3QEFtouMG-4" style="edgeStyle=orthogonalEdgeStyle;rounded=0;orthogonalLoop=1;jettySize=auto;html=1;flowAnimation=1;" parent="1" source="qakppE8xT5BotyRYTquy-1" target="4F1QlJ6JB6xt5xaRoZOq-69" edge="1">
          <mxGeometry relative="1" as="geometry">
            <Array as="points">
              <mxPoint x="770" y="570" />
              <mxPoint x="70" y="570" />
            </Array>
          </mxGeometry>
        </mxCell>
        <UserObject label="Exit" link="data:page/id,XNYLQpKOMPGmqti2CWZ7" id="qakppE8xT5BotyRYTquy-1">
          <mxCell style="shape=offPageConnector;whiteSpace=wrap;html=1;" parent="1" vertex="1">
            <mxGeometry x="730" y="400" width="80" height="80" as="geometry" />
          </mxCell>
        </UserObject>
        <mxCell id="_EL5aT09_CPuBlSTMl6c-12" style="edgeStyle=orthogonalEdgeStyle;rounded=0;orthogonalLoop=1;jettySize=auto;html=1;entryX=0.65;entryY=-0.017;entryDx=0;entryDy=0;entryPerimeter=0;endArrow=none;endFill=0;" parent="1" source="4F1QlJ6JB6xt5xaRoZOq-34" target="4F1QlJ6JB6xt5xaRoZOq-32" edge="1">
          <mxGeometry relative="1" as="geometry" />
        </mxCell>
        <mxCell id="YmqCzH-s7GZ3QEFtouMG-6" style="edgeStyle=orthogonalEdgeStyle;rounded=0;orthogonalLoop=1;jettySize=auto;html=1;entryX=0.5;entryY=1;entryDx=0;entryDy=0;flowAnimation=1;" parent="1" source="_EL5aT09_CPuBlSTMl6c-14" target="4F1QlJ6JB6xt5xaRoZOq-69" edge="1">
          <mxGeometry relative="1" as="geometry">
            <Array as="points">
              <mxPoint x="360" y="550" />
              <mxPoint x="70" y="550" />
            </Array>
          </mxGeometry>
        </mxCell>
        <UserObject label="View All History" link="data:page/id,LmJvhZF5ybTpeMvjLzFs" id="_EL5aT09_CPuBlSTMl6c-14">
          <mxCell style="shape=offPageConnector;whiteSpace=wrap;html=1;" parent="1" vertex="1">
            <mxGeometry x="320" y="390" width="80" height="80" as="geometry" />
          </mxCell>
        </UserObject>
        <mxCell id="YmqCzH-s7GZ3QEFtouMG-7" style="edgeStyle=orthogonalEdgeStyle;rounded=0;orthogonalLoop=1;jettySize=auto;html=1;entryX=0.5;entryY=1;entryDx=0;entryDy=0;flowAnimation=1;" parent="1" source="YmqCzH-s7GZ3QEFtouMG-2" target="4F1QlJ6JB6xt5xaRoZOq-69" edge="1">
          <mxGeometry relative="1" as="geometry">
            <Array as="points">
              <mxPoint x="240" y="540" />
              <mxPoint x="70" y="540" />
            </Array>
          </mxGeometry>
        </mxCell>
        <UserObject label="Manage Acounts" link="data:page/id,rjkk4G9pVdGJUG_Aq8ia" id="YmqCzH-s7GZ3QEFtouMG-2">
          <mxCell style="shape=offPageConnector;whiteSpace=wrap;html=1;" parent="1" vertex="1">
            <mxGeometry x="200" y="390" width="80" height="80" as="geometry" />
          </mxCell>
        </UserObject>
      </root>
    </mxGraphModel>
  </diagram>
  <diagram id="rjkk4G9pVdGJUG_Aq8ia" name="Manage Acounts">
    <mxGraphModel dx="1434" dy="836" grid="1" gridSize="10" guides="1" tooltips="1" connect="1" arrows="1" fold="1" page="1" pageScale="1" pageWidth="827" pageHeight="1169" math="0" shadow="0">
      <root>
        <mxCell id="0" />
        <mxCell id="1" parent="0" />
        <mxCell id="NkMmRhwNhIkyULV5FfB4-2" value="" style="edgeStyle=orthogonalEdgeStyle;rounded=0;orthogonalLoop=1;jettySize=auto;html=1;flowAnimation=1;" parent="1" source="cS6-GRNrkOBsPIZdYja0-1" target="NkMmRhwNhIkyULV5FfB4-1" edge="1">
          <mxGeometry relative="1" as="geometry" />
        </mxCell>
        <UserObject label="Manage Acounts" id="cS6-GRNrkOBsPIZdYja0-1">
          <mxCell style="shape=offPageConnector;whiteSpace=wrap;html=1;" parent="1" vertex="1">
            <mxGeometry x="90" y="30" width="80" height="80" as="geometry" />
          </mxCell>
        </UserObject>
        <UserObject label="Manage Acounts" link="data:page/id,n6Wm4xatbLt7hEbNFKrT" id="cS6-GRNrkOBsPIZdYja0-2">
          <mxCell style="shape=offPageConnector;whiteSpace=wrap;html=1;" parent="1" vertex="1">
            <mxGeometry x="190" y="30" width="80" height="80" as="geometry" />
          </mxCell>
        </UserObject>
        <mxCell id="ssJndMIORNM_PZDlaNrg-2" value="" style="edgeStyle=orthogonalEdgeStyle;rounded=0;orthogonalLoop=1;jettySize=auto;html=1;flowAnimation=1;" parent="1" source="NkMmRhwNhIkyULV5FfB4-1" target="ssJndMIORNM_PZDlaNrg-1" edge="1">
          <mxGeometry relative="1" as="geometry" />
        </mxCell>
        <mxCell id="ssJndMIORNM_PZDlaNrg-8" value="" style="edgeStyle=orthogonalEdgeStyle;rounded=0;orthogonalLoop=1;jettySize=auto;html=1;flowAnimation=1;" parent="1" source="NkMmRhwNhIkyULV5FfB4-1" target="ssJndMIORNM_PZDlaNrg-7" edge="1">
          <mxGeometry relative="1" as="geometry" />
        </mxCell>
        <mxCell id="NkMmRhwNhIkyULV5FfB4-1" value="Show All Acounts" style="whiteSpace=wrap;html=1;" parent="1" vertex="1">
          <mxGeometry x="70" y="150" width="120" height="60" as="geometry" />
        </mxCell>
        <mxCell id="NkMmRhwNhIkyULV5FfB4-6" value="" style="edgeStyle=orthogonalEdgeStyle;rounded=0;orthogonalLoop=1;jettySize=auto;html=1;flowAnimation=1;" parent="1" source="NkMmRhwNhIkyULV5FfB4-3" target="NkMmRhwNhIkyULV5FfB4-5" edge="1">
          <mxGeometry relative="1" as="geometry" />
        </mxCell>
        <UserObject label="Manage Acount- linked from history" id="NkMmRhwNhIkyULV5FfB4-3">
          <mxCell style="shape=offPageConnector;whiteSpace=wrap;html=1;" parent="1" vertex="1">
            <mxGeometry x="314" y="80" width="80" height="80" as="geometry" />
          </mxCell>
        </UserObject>
        <UserObject label="Manage Acount- linked from history" link="data:page/id,LmJvhZF5ybTpeMvjLzFs" id="NkMmRhwNhIkyULV5FfB4-4">
          <mxCell style="shape=offPageConnector;whiteSpace=wrap;html=1;" parent="1" vertex="1">
            <mxGeometry x="210" y="150" width="80" height="80" as="geometry" />
          </mxCell>
        </UserObject>
        <mxCell id="NkMmRhwNhIkyULV5FfB4-7" value="return to history" style="edgeStyle=orthogonalEdgeStyle;rounded=0;orthogonalLoop=1;jettySize=auto;html=1;flowAnimation=1;" parent="1" source="NkMmRhwNhIkyULV5FfB4-5" target="NkMmRhwNhIkyULV5FfB4-4" edge="1">
          <mxGeometry relative="1" as="geometry" />
        </mxCell>
        <mxCell id="ssJndMIORNM_PZDlaNrg-5" value="go to that acount" style="edgeStyle=orthogonalEdgeStyle;rounded=0;orthogonalLoop=1;jettySize=auto;html=1;entryX=1;entryY=0.5;entryDx=0;entryDy=0;flowAnimation=1;" parent="1" source="NkMmRhwNhIkyULV5FfB4-5" target="ssJndMIORNM_PZDlaNrg-3" edge="1">
          <mxGeometry x="-0.6667" relative="1" as="geometry">
            <Array as="points">
              <mxPoint x="410" y="300" />
              <mxPoint x="315" y="300" />
              <mxPoint x="315" y="420" />
            </Array>
            <mxPoint as="offset" />
          </mxGeometry>
        </mxCell>
        <mxCell id="NkMmRhwNhIkyULV5FfB4-5" value="go to &quot;name of clicked&quot; account? or return to history?" style="rhombus;whiteSpace=wrap;html=1;" parent="1" vertex="1">
          <mxGeometry x="370" y="190" width="80" height="80" as="geometry" />
        </mxCell>
        <mxCell id="ssJndMIORNM_PZDlaNrg-4" value="" style="edgeStyle=orthogonalEdgeStyle;rounded=0;orthogonalLoop=1;jettySize=auto;html=1;flowAnimation=1;" parent="1" source="ssJndMIORNM_PZDlaNrg-1" target="ssJndMIORNM_PZDlaNrg-3" edge="1">
          <mxGeometry relative="1" as="geometry" />
        </mxCell>
        <mxCell id="ssJndMIORNM_PZDlaNrg-1" value="Click on one" style="whiteSpace=wrap;html=1;" parent="1" vertex="1">
          <mxGeometry x="140" y="240" width="120" height="60" as="geometry" />
        </mxCell>
        <mxCell id="sBiHLF4BAhx2Dhv9SgDB-3" value="" style="edgeStyle=orthogonalEdgeStyle;rounded=0;orthogonalLoop=1;jettySize=auto;html=1;flowAnimation=1;" parent="1" source="ssJndMIORNM_PZDlaNrg-3" target="sBiHLF4BAhx2Dhv9SgDB-2" edge="1">
          <mxGeometry relative="1" as="geometry" />
        </mxCell>
        <mxCell id="ssJndMIORNM_PZDlaNrg-3" value="Go to that specific page" style="whiteSpace=wrap;html=1;" parent="1" vertex="1">
          <mxGeometry x="140" y="390" width="120" height="60" as="geometry" />
        </mxCell>
        <mxCell id="ssJndMIORNM_PZDlaNrg-9" style="edgeStyle=orthogonalEdgeStyle;rounded=0;orthogonalLoop=1;jettySize=auto;html=1;entryX=0.5;entryY=0;entryDx=0;entryDy=0;flowAnimation=1;" parent="1" source="ssJndMIORNM_PZDlaNrg-7" target="cS6-GRNrkOBsPIZdYja0-2" edge="1">
          <mxGeometry relative="1" as="geometry">
            <Array as="points">
              <mxPoint x="30" y="10" />
              <mxPoint x="230" y="10" />
            </Array>
          </mxGeometry>
        </mxCell>
        <mxCell id="ssJndMIORNM_PZDlaNrg-7" value="Click &quot;Return&quot;" style="whiteSpace=wrap;html=1;" parent="1" vertex="1">
          <mxGeometry y="250" width="120" height="60" as="geometry" />
        </mxCell>
        <mxCell id="ssJndMIORNM_PZDlaNrg-12" value="Done" style="whiteSpace=wrap;html=1;" parent="1" vertex="1">
          <mxGeometry x="570" y="670" width="120" height="60" as="geometry" />
        </mxCell>
        <mxCell id="ZJug2SSZZpA682AyMLns-4" style="edgeStyle=orthogonalEdgeStyle;rounded=0;orthogonalLoop=1;jettySize=auto;html=1;entryX=0.5;entryY=0;entryDx=0;entryDy=0;flowAnimation=1;" parent="1" source="sBiHLF4BAhx2Dhv9SgDB-2" target="sBiHLF4BAhx2Dhv9SgDB-7" edge="1">
          <mxGeometry relative="1" as="geometry">
            <Array as="points">
              <mxPoint x="200" y="640" />
              <mxPoint x="80" y="640" />
            </Array>
          </mxGeometry>
        </mxCell>
        <mxCell id="ZJug2SSZZpA682AyMLns-5" style="edgeStyle=orthogonalEdgeStyle;rounded=0;orthogonalLoop=1;jettySize=auto;html=1;entryX=0.5;entryY=0;entryDx=0;entryDy=0;flowAnimation=1;" parent="1" source="sBiHLF4BAhx2Dhv9SgDB-2" target="sBiHLF4BAhx2Dhv9SgDB-4" edge="1">
          <mxGeometry relative="1" as="geometry" />
        </mxCell>
        <mxCell id="ZJug2SSZZpA682AyMLns-6" style="edgeStyle=orthogonalEdgeStyle;rounded=0;orthogonalLoop=1;jettySize=auto;html=1;flowAnimation=1;" parent="1" source="sBiHLF4BAhx2Dhv9SgDB-2" target="sBiHLF4BAhx2Dhv9SgDB-8" edge="1">
          <mxGeometry relative="1" as="geometry">
            <Array as="points">
              <mxPoint x="200" y="640" />
              <mxPoint x="310" y="640" />
            </Array>
          </mxGeometry>
        </mxCell>
        <mxCell id="ZJug2SSZZpA682AyMLns-8" style="edgeStyle=orthogonalEdgeStyle;rounded=0;orthogonalLoop=1;jettySize=auto;html=1;flowAnimation=1;" parent="1" source="sBiHLF4BAhx2Dhv9SgDB-2" target="-g_dFQ6f1_kA3w2_7g0d-3" edge="1">
          <mxGeometry relative="1" as="geometry">
            <Array as="points">
              <mxPoint x="200" y="640" />
              <mxPoint x="510" y="640" />
            </Array>
          </mxGeometry>
        </mxCell>
        <mxCell id="ZJug2SSZZpA682AyMLns-9" style="edgeStyle=orthogonalEdgeStyle;rounded=0;orthogonalLoop=1;jettySize=auto;html=1;flowAnimation=1;" parent="1" source="sBiHLF4BAhx2Dhv9SgDB-2" target="ssJndMIORNM_PZDlaNrg-12" edge="1">
          <mxGeometry relative="1" as="geometry">
            <Array as="points">
              <mxPoint x="200" y="640" />
              <mxPoint x="630" y="640" />
            </Array>
          </mxGeometry>
        </mxCell>
        <mxCell id="sBiHLF4BAhx2Dhv9SgDB-2" value="Select Option" style="whiteSpace=wrap;html=1;" parent="1" vertex="1">
          <mxGeometry x="140" y="550" width="120" height="60" as="geometry" />
        </mxCell>
        <mxCell id="3cSgoeVekBpBwTiRBUt0-3" style="edgeStyle=orthogonalEdgeStyle;rounded=0;orthogonalLoop=1;jettySize=auto;html=1;entryX=0.5;entryY=1;entryDx=0;entryDy=0;flowAnimation=1;" parent="1" source="sBiHLF4BAhx2Dhv9SgDB-4" target="ZJug2SSZZpA682AyMLns-1" edge="1">
          <mxGeometry relative="1" as="geometry">
            <Array as="points">
              <mxPoint x="200" y="800" />
              <mxPoint x="20" y="800" />
              <mxPoint x="20" y="570" />
              <mxPoint x="80" y="570" />
            </Array>
          </mxGeometry>
        </mxCell>
        <UserObject label="Deposit" link="data:page/id,pU4UomeMbyQIlmwQuINI" id="sBiHLF4BAhx2Dhv9SgDB-4">
          <mxCell style="shape=offPageConnector;whiteSpace=wrap;html=1;" parent="1" vertex="1">
            <mxGeometry x="160" y="670" width="80" height="80" as="geometry" />
          </mxCell>
        </UserObject>
        <mxCell id="3cSgoeVekBpBwTiRBUt0-5" style="edgeStyle=orthogonalEdgeStyle;rounded=0;orthogonalLoop=1;jettySize=auto;html=1;entryX=0.5;entryY=1;entryDx=0;entryDy=0;flowAnimation=1;" parent="1" source="sBiHLF4BAhx2Dhv9SgDB-6" target="ZJug2SSZZpA682AyMLns-1" edge="1">
          <mxGeometry relative="1" as="geometry">
            <Array as="points">
              <mxPoint x="414" y="800" />
              <mxPoint x="20" y="800" />
              <mxPoint x="20" y="570" />
              <mxPoint x="80" y="570" />
            </Array>
          </mxGeometry>
        </mxCell>
        <UserObject label="Pay Bill" link="data:page/id,sB4keo91o8fRopXlaHOE" id="sBiHLF4BAhx2Dhv9SgDB-6">
          <mxCell style="shape=offPageConnector;whiteSpace=wrap;html=1;" parent="1" vertex="1">
            <mxGeometry x="374" y="670" width="80" height="80" as="geometry" />
          </mxCell>
        </UserObject>
        <mxCell id="3cSgoeVekBpBwTiRBUt0-2" style="edgeStyle=orthogonalEdgeStyle;rounded=0;orthogonalLoop=1;jettySize=auto;html=1;flowAnimation=1;" parent="1" source="sBiHLF4BAhx2Dhv9SgDB-7" target="ZJug2SSZZpA682AyMLns-1" edge="1">
          <mxGeometry relative="1" as="geometry">
            <Array as="points">
              <mxPoint x="80" y="800" />
              <mxPoint x="20" y="800" />
              <mxPoint x="20" y="570" />
              <mxPoint x="80" y="570" />
            </Array>
          </mxGeometry>
        </mxCell>
        <UserObject label="Withdraw" link="data:page/id,fkWHMnWHor7PSpOmIvHP" id="sBiHLF4BAhx2Dhv9SgDB-7">
          <mxCell style="shape=offPageConnector;whiteSpace=wrap;html=1;" parent="1" vertex="1">
            <mxGeometry x="40" y="670" width="80" height="80" as="geometry" />
          </mxCell>
        </UserObject>
        <mxCell id="3cSgoeVekBpBwTiRBUt0-4" style="edgeStyle=orthogonalEdgeStyle;rounded=0;orthogonalLoop=1;jettySize=auto;html=1;flowAnimation=1;" parent="1" source="sBiHLF4BAhx2Dhv9SgDB-8" target="ZJug2SSZZpA682AyMLns-1" edge="1">
          <mxGeometry relative="1" as="geometry">
            <Array as="points">
              <mxPoint x="310" y="800" />
              <mxPoint x="20" y="800" />
              <mxPoint x="20" y="570" />
              <mxPoint x="80" y="570" />
            </Array>
          </mxGeometry>
        </mxCell>
        <UserObject label="Cash Check" link="data:page/id,9yoKAOMPRaT6OcF7ZaXy" id="sBiHLF4BAhx2Dhv9SgDB-8">
          <mxCell style="shape=offPageConnector;whiteSpace=wrap;html=1;" parent="1" vertex="1">
            <mxGeometry x="270" y="670" width="80" height="80" as="geometry" />
          </mxCell>
        </UserObject>
        <mxCell id="3cSgoeVekBpBwTiRBUt0-6" style="edgeStyle=orthogonalEdgeStyle;rounded=0;orthogonalLoop=1;jettySize=auto;html=1;entryX=0.5;entryY=1;entryDx=0;entryDy=0;flowAnimation=1;" parent="1" source="-g_dFQ6f1_kA3w2_7g0d-3" target="ZJug2SSZZpA682AyMLns-1" edge="1">
          <mxGeometry relative="1" as="geometry">
            <Array as="points">
              <mxPoint x="510" y="800" />
              <mxPoint x="20" y="800" />
              <mxPoint x="20" y="570" />
              <mxPoint x="80" y="570" />
            </Array>
          </mxGeometry>
        </mxCell>
        <UserObject label="Transfer" link="data:page/id,sB4keo91o8fRopXlaHOE" id="-g_dFQ6f1_kA3w2_7g0d-3">
          <mxCell style="shape=offPageConnector;whiteSpace=wrap;html=1;" parent="1" vertex="1">
            <mxGeometry x="470" y="670" width="80" height="80" as="geometry" />
          </mxCell>
        </UserObject>
        <mxCell id="1xAaofayArGNyX8oCQGO-3" style="edgeStyle=orthogonalEdgeStyle;rounded=0;orthogonalLoop=1;jettySize=auto;html=1;entryX=1.013;entryY=0.338;entryDx=0;entryDy=0;entryPerimeter=0;flowAnimation=1;" parent="1" source="ssJndMIORNM_PZDlaNrg-12" target="cS6-GRNrkOBsPIZdYja0-2" edge="1">
          <mxGeometry relative="1" as="geometry">
            <Array as="points">
              <mxPoint x="660" y="580" />
              <mxPoint x="500" y="580" />
              <mxPoint x="500" y="57" />
            </Array>
          </mxGeometry>
        </mxCell>
        <mxCell id="ZJug2SSZZpA682AyMLns-3" style="edgeStyle=orthogonalEdgeStyle;rounded=0;orthogonalLoop=1;jettySize=auto;html=1;entryX=0.5;entryY=0;entryDx=0;entryDy=0;flowAnimation=1;" parent="1" source="ZJug2SSZZpA682AyMLns-1" target="sBiHLF4BAhx2Dhv9SgDB-2" edge="1">
          <mxGeometry relative="1" as="geometry">
            <Array as="points">
              <mxPoint x="200" y="490" />
            </Array>
          </mxGeometry>
        </mxCell>
        <mxCell id="ZJug2SSZZpA682AyMLns-1" value="used menue &lt;br&gt;&lt;br&gt;(this box is used as a connector to orginize arrows. Your welcome)" style="whiteSpace=wrap;html=1;" parent="1" vertex="1">
          <mxGeometry x="10" y="460" width="140" height="70" as="geometry" />
        </mxCell>
        <mxCell id="ZJug2SSZZpA682AyMLns-7" style="edgeStyle=orthogonalEdgeStyle;rounded=0;orthogonalLoop=1;jettySize=auto;html=1;entryX=0.4;entryY=0.025;entryDx=0;entryDy=0;entryPerimeter=0;flowAnimation=1;" parent="1" source="sBiHLF4BAhx2Dhv9SgDB-2" target="sBiHLF4BAhx2Dhv9SgDB-6" edge="1">
          <mxGeometry relative="1" as="geometry">
            <Array as="points">
              <mxPoint x="200" y="640" />
              <mxPoint x="406" y="640" />
            </Array>
          </mxGeometry>
        </mxCell>
        <mxCell id="g0pY_ZZPDb5q7B-6LLXW-2" value="" style="edgeStyle=orthogonalEdgeStyle;rounded=0;orthogonalLoop=1;jettySize=auto;html=1;flowAnimation=1;" edge="1" parent="1" source="g0pY_ZZPDb5q7B-6LLXW-1" target="ZJug2SSZZpA682AyMLns-1">
          <mxGeometry relative="1" as="geometry" />
        </mxCell>
        <UserObject label="Cancel" id="g0pY_ZZPDb5q7B-6LLXW-1">
          <mxCell style="shape=offPageConnector;whiteSpace=wrap;html=1;" vertex="1" parent="1">
            <mxGeometry x="40" y="340" width="80" height="80" as="geometry" />
          </mxCell>
        </UserObject>
      </root>
    </mxGraphModel>
  </diagram>
  <diagram id="LmJvhZF5ybTpeMvjLzFs" name="Acount History">
    <mxGraphModel dx="1434" dy="836" grid="1" gridSize="10" guides="1" tooltips="1" connect="1" arrows="1" fold="1" page="1" pageScale="1" pageWidth="827" pageHeight="1169" math="0" shadow="0">
      <root>
        <mxCell id="0" />
        <mxCell id="1" parent="0" />
        <UserObject label="View All History" link="data:page/id,n6Wm4xatbLt7hEbNFKrT" id="zANxejhriCFWlqhBoc4g-1">
          <mxCell style="shape=offPageConnector;whiteSpace=wrap;html=1;" parent="1" vertex="1">
            <mxGeometry x="180" y="40" width="80" height="80" as="geometry" />
          </mxCell>
        </UserObject>
        <mxCell id="zANxejhriCFWlqhBoc4g-13" style="edgeStyle=orthogonalEdgeStyle;rounded=0;orthogonalLoop=1;jettySize=auto;html=1;entryX=0.25;entryY=0;entryDx=0;entryDy=0;flowAnimation=1;" parent="1" source="zANxejhriCFWlqhBoc4g-2" target="zANxejhriCFWlqhBoc4g-4" edge="1">
          <mxGeometry relative="1" as="geometry" />
        </mxCell>
        <UserObject label="View All History" id="zANxejhriCFWlqhBoc4g-2">
          <mxCell style="shape=offPageConnector;whiteSpace=wrap;html=1;" parent="1" vertex="1">
            <mxGeometry x="30" y="40" width="80" height="80" as="geometry" />
          </mxCell>
        </UserObject>
        <mxCell id="zANxejhriCFWlqhBoc4g-3" value="" style="edgeStyle=orthogonalEdgeStyle;rounded=0;orthogonalLoop=1;jettySize=auto;html=1;flowAnimation=1;" parent="1" source="zANxejhriCFWlqhBoc4g-4" target="zANxejhriCFWlqhBoc4g-7" edge="1">
          <mxGeometry relative="1" as="geometry" />
        </mxCell>
        <mxCell id="zANxejhriCFWlqhBoc4g-4" value="show each action in a row (acount to, from, action, amount, any other data)" style="whiteSpace=wrap;html=1;" parent="1" vertex="1">
          <mxGeometry x="100" y="220" width="120" height="60" as="geometry" />
        </mxCell>
        <mxCell id="zANxejhriCFWlqhBoc4g-10" value="no" style="edgeStyle=orthogonalEdgeStyle;rounded=0;orthogonalLoop=1;jettySize=auto;html=1;entryX=1;entryY=0.5;entryDx=0;entryDy=0;flowAnimation=1;" parent="1" source="zANxejhriCFWlqhBoc4g-7" target="zANxejhriCFWlqhBoc4g-8" edge="1">
          <mxGeometry relative="1" as="geometry" />
        </mxCell>
        <mxCell id="TAs0ykdWorkHR1RmVl8f-2" value="yes" style="edgeStyle=orthogonalEdgeStyle;rounded=0;orthogonalLoop=1;jettySize=auto;html=1;flowAnimation=1;" parent="1" source="zANxejhriCFWlqhBoc4g-7" target="TAs0ykdWorkHR1RmVl8f-1" edge="1">
          <mxGeometry relative="1" as="geometry" />
        </mxCell>
        <mxCell id="zANxejhriCFWlqhBoc4g-7" value="clicked on name of account?" style="rhombus;whiteSpace=wrap;html=1;" parent="1" vertex="1">
          <mxGeometry x="180" y="340" width="80" height="80" as="geometry" />
        </mxCell>
        <mxCell id="zANxejhriCFWlqhBoc4g-12" value="yes" style="edgeStyle=orthogonalEdgeStyle;rounded=0;orthogonalLoop=1;jettySize=auto;html=1;flowAnimation=1;" parent="1" source="zANxejhriCFWlqhBoc4g-8" target="zANxejhriCFWlqhBoc4g-1" edge="1">
          <mxGeometry x="-0.8462" relative="1" as="geometry">
            <Array as="points">
              <mxPoint x="70" y="490" />
              <mxPoint x="10" y="490" />
              <mxPoint x="10" y="10" />
              <mxPoint x="220" y="10" />
            </Array>
            <mxPoint as="offset" />
          </mxGeometry>
        </mxCell>
        <mxCell id="zANxejhriCFWlqhBoc4g-8" value="hit exit button (stays pinned at top)" style="rhombus;whiteSpace=wrap;html=1;" parent="1" vertex="1">
          <mxGeometry x="25" y="335" width="90" height="90" as="geometry" />
        </mxCell>
        <mxCell id="zANxejhriCFWlqhBoc4g-11" value="no" style="edgeStyle=orthogonalEdgeStyle;rounded=0;orthogonalLoop=1;jettySize=auto;html=1;entryX=0.183;entryY=1.033;entryDx=0;entryDy=0;entryPerimeter=0;flowAnimation=1;" parent="1" source="zANxejhriCFWlqhBoc4g-8" target="zANxejhriCFWlqhBoc4g-4" edge="1">
          <mxGeometry relative="1" as="geometry" />
        </mxCell>
        <mxCell id="TAs0ykdWorkHR1RmVl8f-3" style="edgeStyle=orthogonalEdgeStyle;rounded=0;orthogonalLoop=1;jettySize=auto;html=1;entryX=1;entryY=0.5;entryDx=0;entryDy=0;flowAnimation=1;" parent="1" source="TAs0ykdWorkHR1RmVl8f-1" target="zANxejhriCFWlqhBoc4g-4" edge="1">
          <mxGeometry relative="1" as="geometry">
            <Array as="points">
              <mxPoint x="370" y="250" />
            </Array>
          </mxGeometry>
        </mxCell>
        <UserObject label="Manage Acount- linked from history" link="data:page/id,rjkk4G9pVdGJUG_Aq8ia" id="TAs0ykdWorkHR1RmVl8f-1">
          <mxCell style="shape=offPageConnector;whiteSpace=wrap;html=1;" parent="1" vertex="1">
            <mxGeometry x="330" y="340" width="80" height="80" as="geometry" />
          </mxCell>
        </UserObject>
      </root>
    </mxGraphModel>
  </diagram>
  <diagram id="wfEkAiwTujQPwcicQLLj" name="Change User Credentials">
    <mxGraphModel dx="1434" dy="836" grid="1" gridSize="10" guides="1" tooltips="1" connect="1" arrows="1" fold="1" page="1" pageScale="1" pageWidth="827" pageHeight="1169" math="0" shadow="0">
      <root>
        <mxCell id="0" />
        <mxCell id="1" parent="0" />
        <UserObject label="Change Credentials" link="data:page/id,n6Wm4xatbLt7hEbNFKrT" id="5gmpT4sAXJshc4BqnNNj-1">
          <mxCell style="shape=offPageConnector;whiteSpace=wrap;html=1;" parent="1" vertex="1">
            <mxGeometry x="200" y="30" width="80" height="80" as="geometry" />
          </mxCell>
        </UserObject>
        <mxCell id="UWCjVDgDyIjwWNG9DxDX-16" value="" style="edgeStyle=orthogonalEdgeStyle;rounded=0;orthogonalLoop=1;jettySize=auto;html=1;flowAnimation=1;" parent="1" source="5gmpT4sAXJshc4BqnNNj-2" target="UWCjVDgDyIjwWNG9DxDX-1" edge="1">
          <mxGeometry relative="1" as="geometry" />
        </mxCell>
        <UserObject label="Change Credentials" id="5gmpT4sAXJshc4BqnNNj-2">
          <mxCell style="shape=offPageConnector;whiteSpace=wrap;html=1;" parent="1" vertex="1">
            <mxGeometry x="40" y="30" width="80" height="80" as="geometry" />
          </mxCell>
        </UserObject>
        <mxCell id="yAWJDPyyy7LrKPz4hNhO-44" value="" style="edgeStyle=orthogonalEdgeStyle;rounded=0;orthogonalLoop=1;jettySize=auto;html=1;flowAnimation=1;" parent="1" source="UWCjVDgDyIjwWNG9DxDX-1" target="yAWJDPyyy7LrKPz4hNhO-43" edge="1">
          <mxGeometry relative="1" as="geometry" />
        </mxCell>
        <mxCell id="UWCjVDgDyIjwWNG9DxDX-1" value="show summary of credentials, with private (adress, ssn, ect. obsfucated)" style="whiteSpace=wrap;html=1;" parent="1" vertex="1">
          <mxGeometry x="20" y="140" width="120" height="60" as="geometry" />
        </mxCell>
        <mxCell id="yAWJDPyyy7LrKPz4hNhO-10" value="" style="edgeStyle=orthogonalEdgeStyle;rounded=0;orthogonalLoop=1;jettySize=auto;html=1;flowAnimation=1;" parent="1" source="UWCjVDgDyIjwWNG9DxDX-3" target="UWCjVDgDyIjwWNG9DxDX-12" edge="1">
          <mxGeometry relative="1" as="geometry" />
        </mxCell>
        <mxCell id="UWCjVDgDyIjwWNG9DxDX-3" value="request login credentials" style="whiteSpace=wrap;html=1;" parent="1" vertex="1">
          <mxGeometry x="20" y="370" width="120" height="60" as="geometry" />
        </mxCell>
        <mxCell id="yAWJDPyyy7LrKPz4hNhO-38" style="edgeStyle=orthogonalEdgeStyle;rounded=0;orthogonalLoop=1;jettySize=auto;html=1;entryX=0.5;entryY=0;entryDx=0;entryDy=0;flowAnimation=1;" parent="1" source="UWCjVDgDyIjwWNG9DxDX-4" target="UWCjVDgDyIjwWNG9DxDX-5" edge="1">
          <mxGeometry relative="1" as="geometry" />
        </mxCell>
        <mxCell id="yAWJDPyyy7LrKPz4hNhO-39" style="edgeStyle=orthogonalEdgeStyle;rounded=0;orthogonalLoop=1;jettySize=auto;html=1;flowAnimation=1;" parent="1" source="UWCjVDgDyIjwWNG9DxDX-4" target="UWCjVDgDyIjwWNG9DxDX-8" edge="1">
          <mxGeometry relative="1" as="geometry">
            <Array as="points">
              <mxPoint x="80" y="680" />
              <mxPoint x="240" y="680" />
            </Array>
          </mxGeometry>
        </mxCell>
        <mxCell id="UWCjVDgDyIjwWNG9DxDX-4" value="show change credentials screen" style="whiteSpace=wrap;html=1;" parent="1" vertex="1">
          <mxGeometry x="20" y="590" width="120" height="60" as="geometry" />
        </mxCell>
        <mxCell id="yAWJDPyyy7LrKPz4hNhO-30" value="" style="edgeStyle=orthogonalEdgeStyle;rounded=0;orthogonalLoop=1;jettySize=auto;html=1;flowAnimation=1;" parent="1" source="UWCjVDgDyIjwWNG9DxDX-5" target="yAWJDPyyy7LrKPz4hNhO-24" edge="1">
          <mxGeometry relative="1" as="geometry" />
        </mxCell>
        <mxCell id="UWCjVDgDyIjwWNG9DxDX-5" value="hit save" style="whiteSpace=wrap;html=1;" parent="1" vertex="1">
          <mxGeometry x="20" y="710" width="120" height="60" as="geometry" />
        </mxCell>
        <mxCell id="yAWJDPyyy7LrKPz4hNhO-19" value="yes" style="edgeStyle=orthogonalEdgeStyle;rounded=0;orthogonalLoop=1;jettySize=auto;html=1;entryX=1;entryY=0.25;entryDx=0;entryDy=0;flowAnimation=1;" parent="1" source="UWCjVDgDyIjwWNG9DxDX-6" target="5gmpT4sAXJshc4BqnNNj-1" edge="1">
          <mxGeometry relative="1" as="geometry">
            <Array as="points">
              <mxPoint x="400" y="50" />
            </Array>
          </mxGeometry>
        </mxCell>
        <mxCell id="yAWJDPyyy7LrKPz4hNhO-20" value="no" style="edgeStyle=orthogonalEdgeStyle;rounded=0;orthogonalLoop=1;jettySize=auto;html=1;entryX=1;entryY=0.5;entryDx=0;entryDy=0;flowAnimation=1;" parent="1" source="UWCjVDgDyIjwWNG9DxDX-6" target="UWCjVDgDyIjwWNG9DxDX-4" edge="1">
          <mxGeometry relative="1" as="geometry">
            <Array as="points">
              <mxPoint x="350" y="620" />
            </Array>
          </mxGeometry>
        </mxCell>
        <mxCell id="UWCjVDgDyIjwWNG9DxDX-6" value="confirm?" style="rhombus;whiteSpace=wrap;html=1;" parent="1" vertex="1">
          <mxGeometry x="320" y="830" width="80" height="80" as="geometry" />
        </mxCell>
        <mxCell id="yAWJDPyyy7LrKPz4hNhO-21" value="" style="edgeStyle=orthogonalEdgeStyle;rounded=0;orthogonalLoop=1;jettySize=auto;html=1;flowAnimation=1;" parent="1" source="UWCjVDgDyIjwWNG9DxDX-7" target="UWCjVDgDyIjwWNG9DxDX-6" edge="1">
          <mxGeometry relative="1" as="geometry" />
        </mxCell>
        <mxCell id="UWCjVDgDyIjwWNG9DxDX-7" value="display original next to what&#39;s been changed" style="whiteSpace=wrap;html=1;" parent="1" vertex="1">
          <mxGeometry x="180" y="840" width="120" height="60" as="geometry" />
        </mxCell>
        <mxCell id="yAWJDPyyy7LrKPz4hNhO-17" style="edgeStyle=orthogonalEdgeStyle;rounded=0;orthogonalLoop=1;jettySize=auto;html=1;flowAnimation=1;" parent="1" source="UWCjVDgDyIjwWNG9DxDX-8" target="UWCjVDgDyIjwWNG9DxDX-7" edge="1">
          <mxGeometry relative="1" as="geometry" />
        </mxCell>
        <mxCell id="UWCjVDgDyIjwWNG9DxDX-8" value="hit cancel" style="whiteSpace=wrap;html=1;" parent="1" vertex="1">
          <mxGeometry x="180" y="710" width="120" height="60" as="geometry" />
        </mxCell>
        <mxCell id="yAWJDPyyy7LrKPz4hNhO-37" style="edgeStyle=orthogonalEdgeStyle;rounded=0;orthogonalLoop=1;jettySize=auto;html=1;entryX=1;entryY=0.25;entryDx=0;entryDy=0;flowAnimation=1;" parent="1" source="UWCjVDgDyIjwWNG9DxDX-11" target="5gmpT4sAXJshc4BqnNNj-1" edge="1">
          <mxGeometry relative="1" as="geometry">
            <Array as="points">
              <mxPoint x="400" y="50" />
            </Array>
          </mxGeometry>
        </mxCell>
        <mxCell id="UWCjVDgDyIjwWNG9DxDX-11" value="save new values" style="whiteSpace=wrap;html=1;" parent="1" vertex="1">
          <mxGeometry x="320" y="1060" width="120" height="60" as="geometry" />
        </mxCell>
        <mxCell id="yAWJDPyyy7LrKPz4hNhO-13" value="no" style="edgeStyle=orthogonalEdgeStyle;rounded=0;orthogonalLoop=1;jettySize=auto;html=1;flowAnimation=1;" parent="1" source="UWCjVDgDyIjwWNG9DxDX-12" target="UWCjVDgDyIjwWNG9DxDX-14" edge="1">
          <mxGeometry relative="1" as="geometry" />
        </mxCell>
        <mxCell id="yAWJDPyyy7LrKPz4hNhO-16" value="" style="edgeStyle=orthogonalEdgeStyle;rounded=0;orthogonalLoop=1;jettySize=auto;html=1;flowAnimation=1;" parent="1" source="UWCjVDgDyIjwWNG9DxDX-12" target="UWCjVDgDyIjwWNG9DxDX-4" edge="1">
          <mxGeometry relative="1" as="geometry" />
        </mxCell>
        <mxCell id="UWCjVDgDyIjwWNG9DxDX-12" value="correct credentials?" style="rhombus;whiteSpace=wrap;html=1;" parent="1" vertex="1">
          <mxGeometry x="40" y="465" width="80" height="80" as="geometry" />
        </mxCell>
        <mxCell id="yAWJDPyyy7LrKPz4hNhO-15" style="edgeStyle=orthogonalEdgeStyle;rounded=0;orthogonalLoop=1;jettySize=auto;html=1;entryX=1;entryY=0.75;entryDx=0;entryDy=0;flowAnimation=1;" parent="1" source="UWCjVDgDyIjwWNG9DxDX-14" target="UWCjVDgDyIjwWNG9DxDX-3" edge="1">
          <mxGeometry relative="1" as="geometry">
            <Array as="points">
              <mxPoint x="180" y="480" />
              <mxPoint x="170" y="480" />
              <mxPoint x="170" y="415" />
            </Array>
          </mxGeometry>
        </mxCell>
        <mxCell id="UWCjVDgDyIjwWNG9DxDX-14" value="show error" style="whiteSpace=wrap;html=1;glass=0;rounded=0;shadow=0;" parent="1" vertex="1">
          <mxGeometry x="150" y="530" width="120" height="60" as="geometry" />
        </mxCell>
        <mxCell id="yAWJDPyyy7LrKPz4hNhO-35" value="yes" style="edgeStyle=orthogonalEdgeStyle;rounded=0;orthogonalLoop=1;jettySize=auto;html=1;flowAnimation=1;" parent="1" source="UWCjVDgDyIjwWNG9DxDX-15" target="UWCjVDgDyIjwWNG9DxDX-11" edge="1">
          <mxGeometry relative="1" as="geometry" />
        </mxCell>
        <mxCell id="yAWJDPyyy7LrKPz4hNhO-41" value="no" style="edgeStyle=orthogonalEdgeStyle;rounded=0;orthogonalLoop=1;jettySize=auto;html=1;entryX=0;entryY=0.5;entryDx=0;entryDy=0;flowAnimation=1;" parent="1" source="UWCjVDgDyIjwWNG9DxDX-15" target="UWCjVDgDyIjwWNG9DxDX-4" edge="1">
          <mxGeometry x="-0.8571" relative="1" as="geometry">
            <Array as="points">
              <mxPoint x="10" y="1110" />
              <mxPoint x="10" y="620" />
            </Array>
            <mxPoint as="offset" />
          </mxGeometry>
        </mxCell>
        <mxCell id="UWCjVDgDyIjwWNG9DxDX-15" value="confirm?" style="rhombus;whiteSpace=wrap;html=1;" parent="1" vertex="1">
          <mxGeometry x="190" y="1050" width="80" height="80" as="geometry" />
        </mxCell>
        <mxCell id="yAWJDPyyy7LrKPz4hNhO-8" value="" style="edgeStyle=orthogonalEdgeStyle;rounded=0;orthogonalLoop=1;jettySize=auto;html=1;endArrow=none;endFill=0;flowAnimation=1;" parent="1" source="yAWJDPyyy7LrKPz4hNhO-1" target="UWCjVDgDyIjwWNG9DxDX-3" edge="1">
          <mxGeometry relative="1" as="geometry" />
        </mxCell>
        <mxCell id="yAWJDPyyy7LrKPz4hNhO-9" value="" style="edgeStyle=orthogonalEdgeStyle;rounded=0;orthogonalLoop=1;jettySize=auto;html=1;endArrow=none;endFill=0;flowAnimation=1;" parent="1" source="yAWJDPyyy7LrKPz4hNhO-1" target="yAWJDPyyy7LrKPz4hNhO-3" edge="1">
          <mxGeometry relative="1" as="geometry" />
        </mxCell>
        <mxCell id="yAWJDPyyy7LrKPz4hNhO-1" value="a button is at the bottom that makes you able to edit, else it just does nothing (except display summary of info)&lt;div&gt;&lt;br&gt;&lt;/div&gt;&lt;div&gt;another is there for going back to home page. as no changes, no confirmation needed.&lt;/div&gt;" style="shape=note;whiteSpace=wrap;html=1;backgroundOutline=1;fontColor=#000000;darkOpacity=0.05;fillColor=#FFF9B2;strokeColor=none;fillStyle=solid;direction=west;gradientDirection=north;gradientColor=#FFF2A1;shadow=1;size=20;pointerEvents=1;" parent="1" vertex="1">
          <mxGeometry x="236" y="315" width="140" height="170" as="geometry" />
        </mxCell>
        <mxCell id="yAWJDPyyy7LrKPz4hNhO-46" style="edgeStyle=orthogonalEdgeStyle;rounded=0;orthogonalLoop=1;jettySize=auto;html=1;entryX=1;entryY=0.75;entryDx=0;entryDy=0;flowAnimation=1;" parent="1" source="yAWJDPyyy7LrKPz4hNhO-3" target="5gmpT4sAXJshc4BqnNNj-1" edge="1">
          <mxGeometry relative="1" as="geometry">
            <Array as="points">
              <mxPoint x="330" y="250" />
              <mxPoint x="330" y="90" />
            </Array>
          </mxGeometry>
        </mxCell>
        <mxCell id="yAWJDPyyy7LrKPz4hNhO-3" value="hit cancel?" style="whiteSpace=wrap;html=1;" parent="1" vertex="1">
          <mxGeometry x="200" y="220" width="110" height="60" as="geometry" />
        </mxCell>
        <mxCell id="yAWJDPyyy7LrKPz4hNhO-23" value="" style="edgeStyle=orthogonalEdgeStyle;rounded=0;orthogonalLoop=1;jettySize=auto;html=1;flowAnimation=1;" parent="1" source="yAWJDPyyy7LrKPz4hNhO-24" target="yAWJDPyyy7LrKPz4hNhO-27" edge="1">
          <mxGeometry relative="1" as="geometry" />
        </mxCell>
        <mxCell id="yAWJDPyyy7LrKPz4hNhO-24" value="request login credentials on one side, show whatsh changed between now now and pre-edit" style="whiteSpace=wrap;html=1;" parent="1" vertex="1">
          <mxGeometry x="20" y="820" width="120" height="80" as="geometry" />
        </mxCell>
        <mxCell id="yAWJDPyyy7LrKPz4hNhO-25" value="no" style="edgeStyle=orthogonalEdgeStyle;rounded=0;orthogonalLoop=1;jettySize=auto;html=1;flowAnimation=1;" parent="1" source="yAWJDPyyy7LrKPz4hNhO-27" target="yAWJDPyyy7LrKPz4hNhO-29" edge="1">
          <mxGeometry relative="1" as="geometry" />
        </mxCell>
        <mxCell id="yAWJDPyyy7LrKPz4hNhO-34" value="yes" style="edgeStyle=orthogonalEdgeStyle;rounded=0;orthogonalLoop=1;jettySize=auto;html=1;flowAnimation=1;" parent="1" source="yAWJDPyyy7LrKPz4hNhO-27" target="UWCjVDgDyIjwWNG9DxDX-15" edge="1">
          <mxGeometry relative="1" as="geometry">
            <Array as="points">
              <mxPoint x="80" y="1090" />
            </Array>
          </mxGeometry>
        </mxCell>
        <mxCell id="yAWJDPyyy7LrKPz4hNhO-27" value="correct credentials?" style="rhombus;whiteSpace=wrap;html=1;" parent="1" vertex="1">
          <mxGeometry x="40" y="940" width="80" height="80" as="geometry" />
        </mxCell>
        <mxCell id="yAWJDPyyy7LrKPz4hNhO-33" style="edgeStyle=orthogonalEdgeStyle;rounded=0;orthogonalLoop=1;jettySize=auto;html=1;entryX=1;entryY=0.5;entryDx=0;entryDy=0;flowAnimation=1;" parent="1" source="yAWJDPyyy7LrKPz4hNhO-29" target="yAWJDPyyy7LrKPz4hNhO-24" edge="1">
          <mxGeometry relative="1" as="geometry">
            <Array as="points">
              <mxPoint x="190" y="925" />
              <mxPoint x="150" y="925" />
              <mxPoint x="150" y="860" />
            </Array>
          </mxGeometry>
        </mxCell>
        <mxCell id="yAWJDPyyy7LrKPz4hNhO-29" value="show error" style="whiteSpace=wrap;html=1;" parent="1" vertex="1">
          <mxGeometry x="160" y="950" width="120" height="60" as="geometry" />
        </mxCell>
        <mxCell id="yAWJDPyyy7LrKPz4hNhO-47" value="" style="edgeStyle=orthogonalEdgeStyle;rounded=0;orthogonalLoop=1;jettySize=auto;html=1;flowAnimation=1;" parent="1" source="yAWJDPyyy7LrKPz4hNhO-43" target="UWCjVDgDyIjwWNG9DxDX-3" edge="1">
          <mxGeometry relative="1" as="geometry" />
        </mxCell>
        <mxCell id="yAWJDPyyy7LrKPz4hNhO-43" value="hit edit" style="whiteSpace=wrap;html=1;" parent="1" vertex="1">
          <mxGeometry x="20" y="230" width="120" height="60" as="geometry" />
        </mxCell>
        <mxCell id="yAWJDPyyy7LrKPz4hNhO-45" style="edgeStyle=orthogonalEdgeStyle;rounded=0;orthogonalLoop=1;jettySize=auto;html=1;entryX=0.436;entryY=0.05;entryDx=0;entryDy=0;entryPerimeter=0;flowAnimation=1;" parent="1" source="UWCjVDgDyIjwWNG9DxDX-1" target="yAWJDPyyy7LrKPz4hNhO-3" edge="1">
          <mxGeometry relative="1" as="geometry" />
        </mxCell>
      </root>
    </mxGraphModel>
  </diagram>
  <diagram id="XNYLQpKOMPGmqti2CWZ7" name="Exit">
    <mxGraphModel dx="1434" dy="836" grid="1" gridSize="10" guides="1" tooltips="1" connect="1" arrows="1" fold="1" page="1" pageScale="1" pageWidth="827" pageHeight="1169" math="0" shadow="0">
      <root>
        <mxCell id="0" />
        <mxCell id="1" parent="0" />
        <mxCell id="Fk2r9xS9N9kkvaGJQkiC-3" value="" style="edgeStyle=orthogonalEdgeStyle;rounded=0;orthogonalLoop=1;jettySize=auto;html=1;flowAnimation=1;" parent="1" source="Fk2r9xS9N9kkvaGJQkiC-1" target="Fk2r9xS9N9kkvaGJQkiC-2" edge="1">
          <mxGeometry relative="1" as="geometry" />
        </mxCell>
        <UserObject label="Exit" id="Fk2r9xS9N9kkvaGJQkiC-1">
          <mxCell style="shape=offPageConnector;whiteSpace=wrap;html=1;" parent="1" vertex="1">
            <mxGeometry x="20" y="10" width="80" height="80" as="geometry" />
          </mxCell>
        </UserObject>
        <mxCell id="Fk2r9xS9N9kkvaGJQkiC-5" value="yes" style="edgeStyle=orthogonalEdgeStyle;rounded=0;orthogonalLoop=1;jettySize=auto;html=1;flowAnimation=1;" parent="1" source="Fk2r9xS9N9kkvaGJQkiC-2" target="Fk2r9xS9N9kkvaGJQkiC-4" edge="1">
          <mxGeometry relative="1" as="geometry" />
        </mxCell>
        <mxCell id="hPDUc2VaPHr4xdxN0hBB-2" value="no" style="edgeStyle=orthogonalEdgeStyle;rounded=0;orthogonalLoop=1;jettySize=auto;html=1;flowAnimation=1;" parent="1" source="7_AD700cvs6ehGhuGARy-1" edge="1">
          <mxGeometry relative="1" as="geometry">
            <mxPoint x="60" y="310" as="targetPoint" />
          </mxGeometry>
        </mxCell>
        <mxCell id="Fk2r9xS9N9kkvaGJQkiC-2" value="Confirm" style="rhombus;whiteSpace=wrap;html=1;" parent="1" vertex="1">
          <mxGeometry x="20" y="170" width="80" height="80" as="geometry" />
        </mxCell>
        <mxCell id="Fk2r9xS9N9kkvaGJQkiC-4" value="close app" style="shape=ellipse;html=1;dashed=0;whiteSpace=wrap;aspect=fixed;strokeWidth=5;perimeter=ellipsePerimeter;" parent="1" vertex="1">
          <mxGeometry x="200" y="180" width="60" height="60" as="geometry" />
        </mxCell>
        <mxCell id="Fk2r9xS9N9kkvaGJQkiC-7" style="edgeStyle=orthogonalEdgeStyle;rounded=0;orthogonalLoop=1;jettySize=auto;html=1;entryX=0.5;entryY=0;entryDx=0;entryDy=0;endArrow=none;endFill=0;" parent="1" source="Fk2r9xS9N9kkvaGJQkiC-6" target="Fk2r9xS9N9kkvaGJQkiC-4" edge="1">
          <mxGeometry relative="1" as="geometry" />
        </mxCell>
        <mxCell id="Fk2r9xS9N9kkvaGJQkiC-6" value="also log out? save login? combo? keep loged in?" style="shape=note;whiteSpace=wrap;html=1;backgroundOutline=1;fontColor=#000000;darkOpacity=0.05;fillColor=#FFF9B2;strokeColor=none;fillStyle=solid;direction=west;gradientDirection=north;gradientColor=#FFF2A1;shadow=1;size=20;pointerEvents=1;" parent="1" vertex="1">
          <mxGeometry x="160" y="70" width="140" height="60" as="geometry" />
        </mxCell>
        <mxCell id="7_AD700cvs6ehGhuGARy-2" value="" style="edgeStyle=orthogonalEdgeStyle;rounded=0;orthogonalLoop=1;jettySize=auto;html=1;flowAnimation=1;" parent="1" source="Fk2r9xS9N9kkvaGJQkiC-2" target="7_AD700cvs6ehGhuGARy-1" edge="1">
          <mxGeometry relative="1" as="geometry">
            <mxPoint x="60" y="250" as="sourcePoint" />
            <mxPoint x="60" y="310" as="targetPoint" />
          </mxGeometry>
        </mxCell>
        <UserObject label="Exit" link="data:page/id,n6Wm4xatbLt7hEbNFKrT" id="7_AD700cvs6ehGhuGARy-1">
          <mxCell style="shape=offPageConnector;whiteSpace=wrap;html=1;" parent="1" vertex="1">
            <mxGeometry x="20" y="300" width="80" height="80" as="geometry" />
          </mxCell>
        </UserObject>
      </root>
    </mxGraphModel>
  </diagram>
</mxfile>
